<?xml version="1.0" encoding="utf-8"?>
<!-- Generator: Adobe Illustrator 23.0.6, SVG Export Plug-In . SVG Version: 6.00 Build 0)  -->
<svg version="1.1" id="Layer_1" xmlns="http://www.w3.org/2000/svg" xmlns:xlink="http://www.w3.org/1999/xlink" x="0px" y="0px"
	 viewBox="0 0 143 33" style="enable-background:new 0 0 143 33;" xml:space="preserve">
<style type="text/css">
	.st0{fill:url(#SVGID_1_);}
</style>
<linearGradient id="SVGID_1_" gradientUnits="userSpaceOnUse" x1="3.2218" y1="15.7604" x2="140.8463" y2="15.7604">
	<stop  offset="0" style="stop-color:#E9A222"/>
	<stop  offset="0.3849" style="stop-color:#D24252"/>
	<stop  offset="1" style="stop-color:#9E005D"/>
</linearGradient>
<path class="st0" d="M9.08,27.04h-4.7c-0.8,0-1.15-0.35-1.15-1.15v-8.45c0-1.28,0.38-2.88,1.25-5.12l2.78-7.26
	C7.51,4.32,8.02,4,8.89,4h8.61c0.83,0,1.34,0.32,1.6,1.06l2.78,7.26c0.86,2.24,1.25,3.84,1.25,5.12v8.45c0,0.8-0.35,1.15-1.15,1.15
	h-4.83c-0.86,0-1.25-0.35-1.25-1.15v-4.48h-5.66v4.48C10.23,26.69,9.88,27.04,9.08,27.04z M10.55,15.58h5.02l-1.5-4.86
	c-0.16-0.38-0.35-0.54-0.61-0.54h-0.8c-0.26,0-0.45,0.16-0.61,0.54L10.55,15.58z M28.21,27.04c-0.8,0-1.15-0.35-1.15-1.15V5.15
	c0-0.8,0.35-1.15,1.15-1.15h4.96c0.8,0,1.15,0.35,1.15,1.15v15.84h4.38v-5.18c0-0.8,0.35-1.15,1.15-1.15h4.64
	c0.8,0,1.15,0.35,1.15,1.15v10.08c0,0.8-0.35,1.15-1.15,1.15H28.21z M50.45,27.04c-0.8,0-1.15-0.35-1.15-1.15V5.15
	c0-0.8,0.35-1.15,1.15-1.15h10.21c4.19,0,6.14,1.54,6.14,4.9v1.54c0,1.79-0.61,2.91-1.89,3.46c2.75,0.26,4.03,1.82,4.03,4.96v2.94
	c0,3.58-1.95,5.25-6.21,5.25H50.45z M56.5,12.9h2.72c0.83,0,1.22-0.42,1.22-1.28v-0.9c0-0.86-0.38-1.28-1.22-1.28H56.5V12.9z
	 M56.5,21.6h4.16c0.83,0,1.22-0.42,1.22-1.28v-1.25c0-0.86-0.38-1.25-1.22-1.25H56.5V21.6z M82.23,27.52
	c-7.94,0-9.89-2.62-9.89-6.53V5.15c0-0.8,0.35-1.15,1.15-1.15h5.02c0.8,0,1.15,0.35,1.15,1.15v14.59c0,0.86,0.38,1.5,2.62,1.5
	c2.27,0,2.66-0.64,2.66-1.5V5.15c0-0.8,0.32-1.15,1.15-1.15h4.86c0.8,0,1.15,0.35,1.15,1.15v15.84
	C92.11,24.9,90.16,27.52,82.23,27.52z M97.52,27.04c-0.8,0-1.15-0.35-1.15-1.15V5.15c0-0.8,0.35-1.15,1.15-1.15h5.15
	c0.67,0,1.09,0.26,1.47,0.96l2.88,5.22c0.22,0.38,0.32,0.54,0.58,0.54h0.29c0.26,0,0.35-0.16,0.58-0.54l2.85-5.22
	c0.38-0.7,0.8-0.96,1.47-0.96h5.18c0.8,0,1.15,0.35,1.15,1.15v20.74c0,0.8-0.35,1.15-1.15,1.15h-4.93c-0.83,0-1.15-0.35-1.15-1.15
	V14.62L110,18.11c-0.38,0.74-0.86,1.02-1.7,1.02h-1.28c-0.83,0-1.31-0.29-1.7-1.02l-1.89-3.49v11.26c0,0.8-0.35,1.15-1.15,1.15
	H97.52z M124.11,27.04c-0.8,0-1.15-0.35-1.15-1.15v-3.74c0-0.8,0.35-1.15,1.15-1.15h8.61c0.54,0,0.83-0.42,0.83-0.93
	c0-0.74-0.29-1.02-0.83-1.09l-4.8-0.67c-3.01-0.45-4.96-1.73-4.96-5.31V9.63c0-3.65,2.46-5.63,6.62-5.63h8.96
	c0.8,0,1.15,0.35,1.15,1.15v3.81c0,0.8-0.35,1.15-1.15,1.15h-7.46c-0.54,0-0.86,0.38-0.86,0.96c0,0.58,0.32,0.96,0.86,1.02
	l4.77,0.64c3.01,0.45,4.99,1.73,4.99,5.31v3.36c0,3.65-2.5,5.63-6.62,5.63H124.11z"/>
</svg>
