<?xml version="1.0" encoding="utf-8"?>
<!-- Generator: Adobe Illustrator 23.0.6, SVG Export Plug-In . SVG Version: 6.00 Build 0)  -->
<svg version="1.1" id="Layer_1" xmlns="http://www.w3.org/2000/svg" xmlns:xlink="http://www.w3.org/1999/xlink" x="0px" y="0px"
	 viewBox="0 0 50 50" style="enable-background:new 0 0 50 50;" xml:space="preserve">
<style type="text/css">
	.st0{fill:#FFFFFF;}
</style>
<path class="st0" d="M24.95,49C12.71,49.07,0.98,39.55,1,25.02C1.01,11.32,11.36,0.95,25.06,1C39.81,1.05,49.01,12.84,49,25.01
	C48.99,38.33,38.3,49,24.95,49z M18.19,19.55c0,2.12,0,4.05,0,6.11c1.01,0,1.94,0,2.99,0c0,5.08,0,10.03,0,15.05
	c2.05,0,3.98,0,6.07,0c0-5.04,0-10.01,0-15.13c1.56,0,2.97,0,4.46,0c0.19-2.05,0.37-3.97,0.57-6.04c-1.67,0-3.2,0-4.8,0
	c0-0.82-0.01-1.49,0-2.16c0.03-1.26,0.38-1.61,1.66-1.62c0.98-0.02,1.95,0,2.98,0c0-1.81,0-3.46,0-5.25c-1.57,0-3.07-0.01-4.57,0
	c-4.09,0.03-6.4,2.36-6.42,6.48c-0.01,0.82,0,1.64,0,2.57C20.08,19.55,19.18,19.55,18.19,19.55z"/>
</svg>
