<?xml version="1.0" encoding="utf-8"?>
<!-- Generator: Adobe Illustrator 23.0.6, SVG Export Plug-In . SVG Version: 6.00 Build 0)  -->
<svg version="1.1" id="Layer_1" xmlns="http://www.w3.org/2000/svg" xmlns:xlink="http://www.w3.org/1999/xlink" x="0px" y="0px"
	 viewBox="0 0 1920 1080" style="enable-background:new 0 0 1920 1080;" xml:space="preserve">
<style type="text/css">
	.st0{fill:#E9A222;}
	.st1{fill:#F24155;}
	.st2{fill:#53395B;}
	.st3{fill:#FC6B98;}
</style>
<path class="st0" d="M1669.46,471.37c-106.95-86.13-253.92-120.28-387.89-90.13c-50.61,11.39-107.76,30.32-150.83,1.41
	c-36.15-24.27-47.55-74.25-82.82-99.78c-27.86-20.16-65.87-21-99.01-11.83c-33.14,9.18-63.03,27.13-93.76,42.56
	c-56.24,28.23-116.53,48.4-178.43,59.69c-29.91,5.46-60.8,8.83-90.59,2.76c-65.82-13.41-117.51-77.49-116.68-144.65
	c1.06-86.67-79.9-151.59-159.62-185.62S140.41-8.19,78.7-69.05C110.97-9.93,174.86,23.09,232.34,58.2s116.38,82.85,125.47,149.59
	c10.84,79.66,22.2,161.02,58.45,232.78s102.63,133.43,182.57,141.91c131.68,13.97,256.13-114.96,382.89-76.66
	c57.74,17.45,100.56,66.7,156.08,90.29c38.98,16.56,83.57,19.58,124.43,8.42c52.11-14.24,108.62-50.09,154.91-22.23
	c41.41,24.92,42.61,82.73,49.36,130.59c12.88,91.38,63.78,174.87,131.74,237.3c27.43,25.2,77.97,132.84,109.83,152.04
	c47.08,28.37,81-2,129.71-17.27c7.46-93.87,9.22-192.73,1.43-286.29c-6.78-81.42-32.88-159.54-78.58-227.51
	C1735.39,533.63,1704.69,499.74,1669.46,471.37z"/>
<path class="st1" d="M307.95,319.62c8.53,81.63-18.46,170.91,21.94,242.36c27.38,48.43,80.89,76.93,134.96,90
	c56.85,13.73,117.11,13.06,173.64-1.93c48.71-12.92,94.43-36.18,143.79-46.35c49.36-10.17,106.52-4.41,140.91,32.44
	c54.44,58.33,32.16,169.93,100.36,211.34c56.65,34.4,139.17-6.56,192.49,32.79c21.09,15.56,32.53,40.54,46.49,62.72
	c48.97,77.82,135.42,126.54,225.13,146.72s183.15,14.69,274.43,3.72c20.99-47.11-7.26-102.71-45.67-137.14
	c-38.4-34.42-86.72-56.63-123.82-92.46c-67.66-65.35-87.65-164.4-131.81-247.46c-9.12-17.16-19.66-34.1-34.87-46.2
	c-36.08-28.71-88.08-23.33-132.76-11.92c-44.68,11.41-91.24,27.47-135.74,15.42c-42.85-11.6-74.59-46.93-113.08-69.05
	c-71.13-40.87-159.37-33.87-240.17-19.69c-67.87,11.91-134.99,28.03-200.87,48.23c-27.32,8.38-57.74,17.29-83.46,4.82
	c-19.91-9.65-32.03-29.95-43.01-49.16c-35.94-62.84-72.17-126.35-93.16-195.64c-18.85-62.21-25.74-129.69-61.06-184.25
	c-23.86-36.85-58.86-64.3-97.19-84.9c-19.94-10.71-90.38-52.99-108.31-31.34c-23.15,27.95,42.8,70.7,58.24,86.46
	c31.19,31.82,60.43,66.01,83.81,104.06C284.7,224.78,302.85,270.89,307.95,319.62z"/>
<path class="st2" d="M74.11-13.59C73,53.38,93.51,120.54,131.84,175.48c20.58,29.49,46.25,55.77,61.69,88.24
	c32.97,69.33,13.24,150.54,7.63,227.11c-4.12,56.28,0.07,114.09,20.77,166.59c20.7,52.5,59.22,99.38,110.71,122.49
	c87.31,39.17,187.75,4.59,283.15-2.88c54.9-4.3,118.9,5.59,147.73,52.5c21.11,34.35,17.67,80.58,42.33,112.47
	c21.91,28.33,60.56,37.87,96.35,38.8c35.8,0.93,71.92-4.84,107.26,0.95c36,5.9,69.87,24.09,94.68,50.83
	c28.53,30.75,46.3,73.04,82.99,93.36c27.12,15.02,59.71,15.12,90.71,14.79c86.71-0.94,173.42-2.29,260.12-4.07
	c-90.41-112.84-195.81-213.67-312.54-299c-32.28-23.6-72.68-47.05-110.01-32.73c-9.71,3.73-18.55,9.89-28.74,11.99
	c-32.35,6.64-56.64-28.05-71.29-57.65c-14.16-28.61-28.32-57.22-42.48-85.84c-14.48-29.25-30.23-59.95-57.79-77.42
	c-17.97-11.39-39.44-16.03-60.63-17.84c-80.39-6.86-158.48,23.88-236.7,43.67s-168,26.78-233.21-20.73
	c-14.27-10.4-27.07-23.46-34.33-39.55c-9.51-21.08-8.73-45.15-8.25-68.28c2.11-101.68-6.47-208.21-59.69-294.88
	c-22.74-37.04-52.78-68.96-82.6-100.59c-23.85-25.3-49.47-49.71-71.9-76.27c-5.58-6.61-10.35-15.65-17.05-21.18
	C107.71-2.18,74.11-16.49,74.11-13.59z"/>
<path class="st3" d="M97.77,147.64c12.08,38.76,31,75.71,36.7,115.91c11.95,84.21-35.59,170.71-14.01,252.98
	c5.98,22.8,17.03,43.89,27.98,64.76c27.03,51.47,54.42,103.48,92.67,147.26s88.99,79.23,146.48,87.87
	c54.91,8.25,121.38-4.44,157.41,37.82c19.05,22.34,22.58,54.14,19.93,83.38c-2.66,29.24-10.6,57.96-11.15,87.31
	c-0.14,7.65,0.29,15.57,3.74,22.4c3.63,7.16,10.21,12.35,16.96,16.7c43.85,28.24,99.21,29.39,151.37,29.62
	c148.21,0.68,296.42,1.35,444.64,2.03c14.13,0.06,31-1.38,37.86-13.74c6.77-12.19-0.62-27.1-7.87-39.01
	c-22.12-36.32-44.24-72.64-67.38-108.32c-22.15-34.14-46.71-69.03-82.88-87.67c-42.4-21.86-92.87-17.6-140.48-14.59
	c-12.06,0.76-24.69,1.31-35.66-3.74c-11.89-5.47-19.95-16.59-28.31-26.66c-56.96-68.61-152.4-102.91-240-86.27
	c-31.7,6.02-61.96,18.09-93.49,24.97c-54.48,11.89-112.36,7.76-164.59-11.75c-27.3-10.2-54.29-25.67-68.97-50.85
	c-15.18-26.03-14.82-57.96-13.77-88.08c4.36-125.1,10.75-259.63-56.93-364.94c-30.48-47.43-74.37-85.67-101.06-135.33
	C92.77,63.29,77.17,27.93,75.63-2.34C78.95,48.23,82.61,98.95,97.77,147.64z"/>
<path class="st3" d="M502.58,936.8c1.77-2.13,3.17-4.4,4.01-6.68c1.54-4.16,1.59-8.72,1.13-13.13c-2.31-21.93-17.8-44.6-40.92-47.63
	c-3.3-0.43-6.77-0.49-9.85,0.78c-5.08,2.09-8.09,7.33-10.1,12.44c-6.91,17.58-5.41,39.67,8.17,52.8
	c5.81,5.61,13.01,10.89,20.98,12.82C484.77,950.3,496.17,944.47,502.58,936.8z"/>
<path class="st2" d="M1053.89,903.13c-11.25-8.92-24.66-15.1-38.74-17.87c-12.88-2.53-29.39-0.23-34.09,12.03
	c-5.04,13.15,7.57,26.31,20,32.92c11.6,6.18,25.37,10.4,37.83,6.21c12.46-4.2,21.42-19.73,14.84-31.11"/>
<path class="st0" d="M1217.09,315.5c0.81,0.56,1.59,1.17,2.34,1.8c1.79,1.51,5.43,4.28,5.52,6.9c0.51,14.09-16.64,21.15-30.51,23.63
	c-9.84,1.76-20.19,3.19-29.65-0.05c-9.46-3.24-17.56-12.63-15.94-22.5c1.36-8.25,9.05-14.3,17.16-16.34
	c6.55-1.64,13.25-1.22,19.89-0.59c3.21,0.3,6.45,1.62,9.62,2.37c3.48,0.82,7.02,1.46,10.59,1.68c1.81,0.11,3.65,0.12,5.42,0.52
	C1213.57,313.39,1215.4,314.34,1217.09,315.5z"/>
<path class="st0" d="M1459.14,710.11c-1.88-19.14-6.83-37.97-14.6-55.56c-5.36-12.13-12.48-24.13-23.7-31.21s-27.35-7.75-36.84,1.51
	c-3.27,3.19-5.54,7.28-7.17,11.55c-7.02,18.4-2.26,39.81,8.67,56.19c10.92,16.38,27.29,28.39,44.39,38.16
	c6.98,3.99,14.81,7.78,22.73,6.4s14.76-10.45,10.93-17.51"/>
<path class="st1" d="M1700.32,845.09c1.44-13.47-1.06-27.34-7.1-39.47c-4.06-8.15-10.48-16.03-19.39-17.89
	c-14.64-3.06-27.58,11.98-29.68,26.8c-4.07,28.76,23.68,57.47,52.56,54.39c1.53-6.84,3.06-13.68,4.59-20.52"/>
<path class="st1" d="M1256.48,521.03c15.95-7.08,30.38-17.53,46.89-23.18c27.91-9.54,58.36-4.42,87.85-4.06
	c8.27,0.1,17.27-0.46,23.51-5.88c9.95-8.64,7.26-25.93-2.27-35.02s-23.35-11.88-36.45-13.27c-64.03-6.78-129.94,10.25-192.57-4.68
	c-15.76-3.76-31.11-9.51-47.2-11.36c-16.09-1.85-33.7,0.81-45.58,11.83c-11.88,11.01-15.13,31.87-3.72,43.37
	c3.22,3.24,7.26,5.52,11.25,7.75C1153.65,517.58,1191.57,542.66,1256.48,521.03z"/>
<g>
	<path d="M1011.39,333.79c-7.03-6.65-15.41-13.04-25.13-14.65c-8.93-1.48-17.99,1.22-26.53,4.24c-24.87,8.8-49.46,21.27-65.94,41.87
		c-3.43,4.29-6.61,9.95-4.49,15.02c1.41,3.37,4.8,5.43,8.07,7.06c30.12,15,66.21,12.34,98.6,3.22c10.63-2.99,21.41-4.75,32.25-4.04
		c5.85,0.39,10.55-4.88,9.45-10.64c-0.01-0.07-0.03-0.13-0.04-0.18c-1.61-6.86-4.54-13.17-8.1-19.22
		C1024.61,348.07,1018.46,340.47,1011.39,333.79z"/>
</g>
<g>
	<path d="M192.89,420.42c5.21-15.25,7.4-31.53,6.4-47.61c-0.23-3.76-0.73-7.75-3.12-10.67c-3.89-4.76-11.58-4.73-16.81-1.51
		c-5.24,3.21-8.54,8.75-11.41,14.18c-14.21,26.98-22.6,57.01-24.41,87.45c-1.09,18.28,3.65,72.61,29.77,48.16
		C187.55,497.09,186.01,440.58,192.89,420.42z"/>
</g>
<g>
	<path d="M690.07,955.58c-7.28-17.47-12.56-39.83-30.73-45.15c-8.57-2.51-17.89-0.13-25.88,3.87
		c-17.48,8.75-30.76,25.51-35.27,44.54c-8.67,36.57,15.73,74.8,48.57,93.07c20.24,11.26,117.33,41.87,125.33,4.91
		C776.35,1037.18,700.51,980.61,690.07,955.58z"/>
</g>
<path d="M649.66,857.75c-9.61,15.16-26.91,27.22-45.16,25.06c-12.15-1.44-23.64-11.16-24.48-23.36
	c-0.71-10.18,5.68-19.61,13.39-26.29c9.51-8.25,21.95-13.75,34.49-12.72c8.93,0.73,18.18,5.53,23.92,12.44
	c2.06,2.48,3.59,5.5,3.8,8.71c0.21,3.21-0.89,6.35-2.22,9.28C652.34,853.19,651.08,855.5,649.66,857.75z"/>
<path d="M1675.95,572.3c0.14-0.19,0.27-0.39,0.4-0.58c2.7-4.13,4.31-9.05,4.87-13.93c1.45-12.64-1.03-25.86-7.68-36.75
	c-0.42-0.68-0.85-1.35-1.29-2.01c-8.27-12.25-21.7-20.91-36.28-23.38c-7.5-1.27-15.71-0.81-21.96,3.53
	c-7.74,5.37-10.76,15.54-10.66,24.96c0.31,27.64,22.19,51.62,45.87,63.31c4.21,2.08,8.69,3.85,13.38,3.98
	c2.08,0.06,4.35-0.3,5.8-1.8c2.35-2.45,1.05-5.8,1.81-8.71C1671.08,577.54,1674,575.05,1675.95,572.3z"/>
<path class="st3" d="M244.65,813.87c-11.92-10.86-24.13-23.21-30.67-38.22c-3.72-8.53-2.17-39.71-18.48-33.71
	c-6.28,2.31-9.72,9.06-11.52,15.51c-5.06,18.17-9.82,35.97-12.04,54.82c-2.19,18.56-2.2,39.64,12.1,53.57
	c8.58,8.35,19.81,13.39,31.11,17.37c17.86,6.3,135.75,32.6,102.82-15.45C300.44,842.19,266.7,833.95,244.65,813.87z"/>
<path class="st0" d="M1716.83,371.98c-23.36-18.62-57.72-25.59-83.7-10.86c-7.44,4.21-14.65,12.22-12.02,20.35
	c1.93,5.95,8.24,9.08,13.88,11.79c26.61,12.78,51.06,30.03,72.01,50.83c6.57,6.52,12.92,13.48,20.98,18.02
	c30.69,17.3,32.92-15.53,27.27-36.09C1749.72,405.93,1732.86,384.76,1716.83,371.98z"/>
<path class="st0" d="M1561.3,356.32c0.01-0.05,0.03-0.11,0.04-0.16c0.96-3.76,1.73-7.68,1.1-11.52c-0.21-1.29-0.6-2.61-1.46-3.6
	c-0.87-1-2.12-1.57-3.33-2.11c-3.23-1.44-6.57-3.39-9.98-4.27c-3.55-0.92-6.88-1.9-10.59-1.9c-8.57,0-17.8,5.57-18.81,14.08
	c-1.07,9,7.61,16.8,16.57,18.14c4.46,0.67,9.05,0.54,13.47-0.35c2.35-0.47,4.76-1.24,6.89-2.36c1.68-0.88,3.83-1.66,4.99-3.23
	C1560.76,358.25,1561.05,357.28,1561.3,356.32z"/>
<path class="st2" d="M1172.87,678.81c-20.76-11.09-43.16-20.83-58.61-38.6c-12.83-14.75-20.75-33.99-42.32-36.53
	c-8.34-0.98-16.93-0.46-24.99-2.83c-13.31-3.91-33.11-16.05-40.52,4.17c-3.59,9.78-0.19,20.67,3.99,30.21
	c11.75,26.83,26.29,57.32,46.38,78.85c13.22,14.16,31.5,24.77,50.86,24.35c14.44-0.31,28.76-6.63,42.94-3.91
	c13.02,2.49,23.4,12.12,35.51,17.52c32.79,14.63,40.31-16.88,26.17-40.38C1204.51,698.73,1185.93,685.79,1172.87,678.81z"/>
<path class="st2" d="M784.94,792.86c-10.68-11.49-24.85-19.7-40.13-23.25c-6.03-1.4-12.43-2.07-18.36-0.27
	c-15.07,4.58-21.19,22.78-21.61,38.53c-0.76,28.22,9.88,56.59,29.01,77.36c10.07,10.93,22.24,19.69,34.55,28.03
	c24.74,16.74,51.05,32.33,80.26,38.57c13.18,2.82,27.18,3.62,39.95-0.71c16.95-5.75,37.79-29.12,24.17-47.61
	c-9.34-12.68-38.76-5.71-52.57-11.14C817.03,875.39,813.71,823.81,784.94,792.86z"/>
<path class="st2" d="M432.91,574.87c-8.14,3.21-17.96,4.37-26.67,3.66c-7.02-0.57-14.14-3.07-18.94-8.22
	c-6.38-6.85-5.88-15.41-5.23-24.1c0.49-6.46,0.97-12.92,1.46-19.39c0.73-9.73,1.63-19.96,7.09-28.05
	c5.46-8.09,17.15-12.85,25.31-7.49c4.27,2.81,6.68,7.66,8.73,12.34c8.79,20.08,14.91,41.59,17.71,63.34c0.1,0.81,0.2,1.67-0.12,2.42
	c-0.37,0.86-1.2,1.41-2.01,1.89C437.89,572.67,435.44,573.87,432.91,574.87z"/>
</svg>
