<?xml version="1.0" encoding="utf-8"?>
<!-- Generator: Adobe Illustrator 23.0.6, SVG Export Plug-In . SVG Version: 6.00 Build 0)  -->
<svg version="1.1" id="Layer_1" xmlns="http://www.w3.org/2000/svg" xmlns:xlink="http://www.w3.org/1999/xlink" x="0px" y="0px"
	 viewBox="0 0 216 216" style="enable-background:new 0 0 216 216;" xml:space="preserve">
<style type="text/css">
	.st0{fill:#FFFFFF;}
</style>
<g>
	<path class="st0" d="M33.84,154.78c0-10.69,0.05-21.38-0.04-32.06c-0.02-2.35,0.66-4.07,2.34-5.74
		c23.43-23.33,46.81-46.71,70.14-70.14c1.78-1.79,2.8-1.84,4.6-0.03c23.57,23.66,47.21,47.25,70.87,70.83
		c1.29,1.28,1.83,2.65,1.83,4.44c-0.02,21.46,0.03,42.92-0.02,64.38c-0.01,6.6-2.75,9.36-9.31,9.39c-13.86,0.07-27.72,0.04-41.58,0
		c-3.73-0.01-3.94-0.27-3.94-4.04c-0.01-14.19,0.01-28.39,0.01-42.58c0-3.68-0.1-3.78-3.78-3.78c-10.52,0-21.04,0-31.56,0
		c-3.76,0-3.81,0.05-3.81,3.73c0,14.36,0,28.72-0.01,43.08c0,3.41-0.17,3.6-3.51,3.6c-14.28,0.03-28.56,0.07-42.83-0.01
		c-6.79-0.03-9.38-2.74-9.39-9.49c-0.02-10.52-0.01-21.04-0.01-31.56C33.83,154.78,33.83,154.78,33.84,154.78z"/>
	<path class="st0" d="M107.95,20.12c3.49,0.02,6.48,1.17,8.98,3.68c29.27,29.29,58.55,58.57,87.82,87.86
		c3.66,3.66,3.67,5.35,0.08,8.98c-5.9,5.95-6.68,5.97-12.66-0.01c-27.1-27.09-54.2-54.19-81.3-81.28c-2.7-2.7-2.71-2.69-5.47,0.06
		c-27.45,27.45-54.9,54.9-82.35,82.35c-0.88,0.88-1.74,1.82-2.74,2.56c-1.98,1.48-4.09,1.49-5.98-0.11c-1.65-1.4-3.2-2.95-4.62-4.58
		c-1.69-1.95-1.65-4.15-0.05-6.17c0.57-0.72,1.24-1.35,1.89-2C40.74,82.3,69.91,53.15,99.04,23.96
		C101.55,21.45,104.4,20.07,107.95,20.12z"/>
</g>
</svg>
