<?xml version="1.0" encoding="utf-8"?>
<!-- Generator: Adobe Illustrator 23.0.6, SVG Export Plug-In . SVG Version: 6.00 Build 0)  -->
<svg version="1.1" id="Layer_1" xmlns="http://www.w3.org/2000/svg" xmlns:xlink="http://www.w3.org/1999/xlink" x="0px" y="0px"
	 viewBox="0 0 216 33" style="enable-background:new 0 0 216 33;" xml:space="preserve">
<style type="text/css">
	.st0{fill:url(#SVGID_1_);}
</style>
<linearGradient id="SVGID_1_" gradientUnits="userSpaceOnUse" x1="54.2987" y1="-37.2178" x2="162.4444" y2="70.9279">
	<stop  offset="0" style="stop-color:#E9A222"/>
	<stop  offset="0.3849" style="stop-color:#D24252"/>
	<stop  offset="1" style="stop-color:#9E005D"/>
</linearGradient>
<path class="st0" d="M12.87,26.55H8.5c-0.74,0-1.07-0.33-1.07-1.07v-7.84c0-1.19,0.36-2.67,1.16-4.75l2.58-6.74
	c0.24-0.68,0.71-0.98,1.52-0.98h7.99c0.77,0,1.25,0.3,1.49,0.98l2.58,6.74c0.8,2.08,1.16,3.57,1.16,4.75v7.84
	c0,0.74-0.33,1.07-1.07,1.07h-4.49c-0.8,0-1.16-0.33-1.16-1.07v-4.16h-5.26v4.16C13.94,26.23,13.62,26.55,12.87,26.55z M14.24,15.92
	h4.66l-1.4-4.52c-0.15-0.36-0.33-0.51-0.56-0.51H16.2c-0.24,0-0.42,0.15-0.56,0.51L14.24,15.92z M30.64,26.55
	c-0.74,0-1.07-0.33-1.07-1.07V6.23c0-0.74,0.33-1.07,1.07-1.07h9.89c4.46,0,5.85,2.02,5.85,4.96v1.37c0,1.66-0.42,2.85-1.66,3.39
	c2.17,0.24,3.6,1.81,3.6,4.31v6.3c0,0.74-0.33,1.07-1.07,1.07h-4.61c-0.74,0-1.07-0.33-1.07-1.07v-4.55c0-0.89-0.3-1.28-1.13-1.28
	h-4.16v5.82c0,0.74-0.33,1.07-1.07,1.07H30.64z M36.29,14.31h2.23c1.04,0,1.31-0.59,1.31-1.4v-1.01c0-0.8-0.27-1.4-1.31-1.4h-2.23
	V14.31z M56.05,26.55c-0.74,0-1.07-0.33-1.07-1.07V10.9h-4.37c-0.74,0-1.07-0.33-1.07-1.07v-3.6c0-0.74,0.33-1.07,1.07-1.07H66.3
	c0.74,0,1.07,0.33,1.07,1.07v3.6c0,0.74-0.33,1.07-1.07,1.07h-4.37v14.59c0,0.74-0.33,1.07-1.07,1.07H56.05z M69.77,25.48v-3.54
	c0-0.74,0.33-1.07,1.07-1.07h2.94V10.9h-2.94c-0.74,0-1.07-0.33-1.07-1.07v-3.6c0-0.74,0.33-1.07,1.07-1.07H83.5
	c0.74,0,1.07,0.33,1.07,1.07v3.6c0,0.74-0.33,1.07-1.07,1.07h-2.88v9.98h2.88c0.74,0,1.07,0.33,1.07,1.07v3.54
	c0,0.74-0.33,1.07-1.07,1.07H70.84C70.1,26.55,69.77,26.23,69.77,25.48z M88.76,26.55c-0.74,0-1.07-0.33-1.07-1.07v-3.48
	c0-0.74,0.33-1.07,1.07-1.07h7.99c0.51,0,0.77-0.39,0.77-0.86c0-0.68-0.27-0.95-0.77-1.01l-4.46-0.62c-2.79-0.42-4.61-1.6-4.61-4.93
	v-3.12c0-3.39,2.29-5.23,6.15-5.23h8.32c0.74,0,1.07,0.33,1.07,1.07v3.54c0,0.74-0.33,1.07-1.07,1.07h-6.92
	c-0.51,0-0.8,0.36-0.8,0.89c0,0.53,0.3,0.89,0.8,0.95l4.43,0.59c2.79,0.42,4.64,1.6,4.64,4.93v3.12c0,3.39-2.32,5.23-6.15,5.23
	H88.76z M112.53,26.55c-0.74,0-1.07-0.33-1.07-1.07V10.9h-4.37c-0.74,0-1.07-0.33-1.07-1.07v-3.6c0-0.74,0.33-1.07,1.07-1.07h15.69
	c0.74,0,1.07,0.33,1.07,1.07v3.6c0,0.74-0.33,1.07-1.07,1.07h-4.37v14.59c0,0.74-0.33,1.07-1.07,1.07H112.53z M132.65,25.48v-3.54
	c0-0.74,0.33-1.07,1.07-1.07h2.94V10.9h-2.94c-0.74,0-1.07-0.33-1.07-1.07v-3.6c0-0.74,0.33-1.07,1.07-1.07h12.66
	c0.74,0,1.07,0.33,1.07,1.07v3.6c0,0.74-0.33,1.07-1.07,1.07h-2.88v9.98h2.88c0.74,0,1.07,0.33,1.07,1.07v3.54
	c0,0.74-0.33,1.07-1.07,1.07h-12.66C132.97,26.55,132.65,26.23,132.65,25.48z M152.17,26.55c-0.74,0-1.07-0.33-1.07-1.07V6.23
	c0-0.74,0.33-1.07,1.07-1.07h3.09c0.77,0,1.25,0.21,1.75,0.8l5.76,6.6V6.23c0-0.74,0.33-1.07,1.07-1.07h4.46
	c0.74,0,1.07,0.33,1.07,1.07v19.25c0,0.74-0.33,1.07-1.07,1.07h-4.46c-0.74,0-1.07-0.33-1.07-1.07v-3.65l-5.08-6.15v9.81
	c0,0.74-0.33,1.07-1.07,1.07H152.17z M174.54,26.55c-0.74,0-1.07-0.33-1.07-1.07V6.23c0-0.74,0.33-1.07,1.07-1.07h13.25
	c0.74,0,1.07,0.33,1.07,1.07v3.54c0,0.74-0.33,1.07-1.07,1.07h-7.58v3.09h5.17c0.74,0,1.07,0.33,1.07,1.07v3.57
	c0,0.74-0.33,1.07-1.07,1.07h-5.17v5.85c0,0.74-0.33,1.07-1.07,1.07H174.54z M200.6,27c-7.43,0-9.24-2.44-9.24-6.06V10.81
	c0-3.63,1.81-6.09,9.24-6.09c7.43,0,9.21,2.47,9.21,6.09v10.13C209.81,24.56,208.03,27,200.6,27z M200.6,21.27
	c2.17,0,2.5-0.59,2.5-1.4v-7.99c0-0.77-0.33-1.37-2.5-1.37c-2.14,0-2.5,0.59-2.5,1.37v7.99C198.1,20.67,198.46,21.27,200.6,21.27z"
	/>
</svg>
