<?xml version="1.0" encoding="utf-8"?>
<!-- Generator: Adobe Illustrator 23.0.6, SVG Export Plug-In . SVG Version: 6.00 Build 0)  -->
<svg version="1.1" id="Layer_1" xmlns="http://www.w3.org/2000/svg" xmlns:xlink="http://www.w3.org/1999/xlink" x="0px" y="0px"
	 viewBox="0 0 50 50" style="enable-background:new 0 0 50 50;" xml:space="preserve">
<style type="text/css">
	.st0{fill:#FFFFFF;}
</style>
<g>
	<path class="st0" d="M1,25.09c-0.06-12.2,9.08-24,23.84-24.11C39.24,0.86,48.89,12.27,49,24.9c0.11,13-10.65,23.94-23.38,24.12
		C11.86,49.23,0.97,38.24,1,25.09z M37.77,24.9c-0.01,0-0.01,0-0.02,0c0-2.38,0.01-4.77,0-7.15c-0.03-3.26-2.3-5.57-5.55-5.59
		c-4.81-0.03-9.62-0.03-14.42,0c-3.25,0.02-5.54,2.31-5.56,5.58c-0.03,4.85-0.03,9.7,0,14.54c0.02,3.19,2.26,5.55,5.44,5.6
		c4.89,0.07,9.78,0.08,14.66,0c3.28-0.05,5.51-2.55,5.46-5.83C37.74,29.66,37.77,27.28,37.77,24.9z"/>
	<path class="st0" d="M35.47,25.04c0,2.43,0.02,4.85-0.01,7.28c-0.02,2.06-1.23,3.25-3.28,3.26c-4.69,0.01-9.38,0.02-14.07,0.02
		c-2.48,0-3.63-1.18-3.63-3.66c0-4.69,0-9.38,0-14.07c0-2.2,1.26-3.46,3.49-3.47c4.69-0.01,9.38-0.01,14.07,0
		c2.21,0.01,3.44,1.26,3.45,3.5c0.01,2.39,0,4.77,0,7.16C35.48,25.04,35.47,25.04,35.47,25.04z M25.04,18.32
		c-3.66-0.03-6.69,2.93-6.73,6.6c-0.04,3.71,2.99,6.8,6.68,6.8c3.64,0,6.67-3.03,6.68-6.68C31.69,21.37,28.71,18.35,25.04,18.32z
		 M32.14,16.42c-0.83,0-1.66,0.78-1.58,1.6c0.09,0.88,0.57,1.48,1.51,1.54c0.87,0.06,1.62-0.66,1.64-1.53
		C33.74,17.19,32.99,16.43,32.14,16.42z"/>
	<path class="st0" d="M24.99,20.58c2.47,0,4.51,2.05,4.46,4.49c-0.04,2.41-2.04,4.37-4.46,4.37c-2.49,0-4.48-2.01-4.44-4.48
		C20.59,22.51,22.55,20.57,24.99,20.58z"/>
</g>
</svg>
