<?xml version="1.0" encoding="utf-8"?>
<!-- Generator: Adobe Illustrator 23.0.6, SVG Export Plug-In . SVG Version: 6.00 Build 0)  -->
<svg version="1.1" id="Layer_1" xmlns="http://www.w3.org/2000/svg" xmlns:xlink="http://www.w3.org/1999/xlink" x="0px" y="0px"
	 viewBox="0 0 216 66" style="enable-background:new 0 0 216 66;" xml:space="preserve">
<style type="text/css">
	.st0{fill:#FFFFFF;}
</style>
<g>
	<g>
		<g>
			<path class="st0" d="M19.16,53.64c-0.23,0.07-0.47,0.12-0.72,0.14c-1.31,0.12-2.81-0.47-4.02-1.56
				c-1.07-0.97-1.86-2.18-2.63-3.36c-0.89-1.36-1.8-2.76-2.35-4.33c-0.72-2.07-0.56-4.12,0.44-5.92c1.11-2,3.67-2.8,5.93-3.51
				c0.79-0.25,1.53-0.48,2.17-0.75c1.48-0.62,2.3-2.05,3.09-3.43c0.11-0.2,0.23-0.4,0.35-0.6c0.81-1.36,2.01-3.01,4.19-3.6
				c0.33-0.09,0.76-0.17,1.12,0.04c0.34,0.2,0.53,0.62,0.53,1.13c-0.01,1.03-0.6,1.57-1.17,2.1c-0.36,0.34-0.73,0.69-0.95,1.16
				c-0.08,0.17-0.08,0.34,0,0.52c0.19,0.45,0.83,0.85,1.37,1.04c0.63,0.22,1.02,0.59,1.16,1.08c0.33,1.17-0.84,2.63-0.89,2.69
				l-0.01,0.01l-0.01,0.01c-0.02,0.02-0.54,0.43-0.1,1.44c0.41,0.95,1.95,0.38,2.09,0.33c0.77-0.48,1.88-0.72,2.44-0.23
				c0.27,0.23,0.5,0.72,0.07,1.7c-0.58,1.33-1.61,2.47-2.9,3.22c-0.55,0.32-1.14,0.56-1.72,0.79c-0.72,0.29-1.47,0.59-2.13,1.06
				c-1.1,0.78-1.35,1.93-1.61,3.15c-0.11,0.5-0.22,1.01-0.39,1.5c-0.4,1.13-0.9,2.08-1.53,2.89C20.49,52.98,19.87,53.42,19.16,53.64
				z M25.51,27.02c-1.54,0.47-2.74,1.54-3.85,3.43c-0.12,0.2-0.23,0.4-0.35,0.6c-0.82,1.42-1.66,2.89-3.22,3.55
				c-0.66,0.27-1.4,0.51-2.19,0.76c-2.21,0.69-4.72,1.48-5.78,3.38c-0.96,1.74-1.11,3.71-0.42,5.7c0.53,1.54,1.44,2.93,2.32,4.27
				c0.76,1.16,1.54,2.36,2.59,3.3c1.16,1.04,2.58,1.6,3.81,1.49c0.94-0.08,1.74-0.53,2.36-1.34c0.61-0.79,1.1-1.71,1.49-2.82
				c0.17-0.48,0.28-0.98,0.38-1.47c0.26-1.22,0.54-2.47,1.72-3.31c0.68-0.48,1.45-0.79,2.18-1.09c0.56-0.23,1.15-0.46,1.68-0.77
				c1.24-0.72,2.23-1.82,2.79-3.1c0.2-0.46,0.36-1.07,0-1.39c-0.4-0.34-1.36-0.23-2.14,0.26l-0.02,0.01
				c-0.08,0.03-1.92,0.76-2.45-0.47c-0.48-1.12,0.07-1.66,0.17-1.74c0.1-0.13,1.11-1.46,0.83-2.44c-0.12-0.41-0.45-0.71-0.99-0.9
				c-0.56-0.2-1.29-0.62-1.53-1.19c-0.11-0.25-0.11-0.5,0-0.73c0.24-0.52,0.63-0.89,1.01-1.24c0.55-0.51,1.07-1,1.08-1.91
				c0.01-0.42-0.14-0.75-0.39-0.9c-0.27-0.16-0.63-0.09-0.91-0.01C25.63,26.99,25.57,27.01,25.51,27.02z"/>
		</g>
	</g>
	<g>
		<g>
			<path class="st0" d="M24.98,38.19c-0.68,0.21-1.91-2.07-1.97-2.29c-0.03-0.1-0.09-0.3,1.22-1.52c0.66-0.61,1.45-1.28,1.88-1.58
				l17.9-16.05l0.01,0c0.02-0.01,1.66-1.2,1.39-2.28c-0.12-0.49-0.09-0.87,0.08-1.15c0.15-0.23,0.35-0.31,0.43-0.34c0,0,0,0,0,0
				c0.77-0.48,6.78-4.2,7.26-4.28c0.43-0.07,1.76-0.06,2.27,0.82c0.17,0.29,0.2,0.67,0.08,1.1c-0.17,0.61-0.64,1.26-1.08,1.5
				c-0.42,0.22-0.9,0.2-1.32,0.18c-0.24-0.01-0.46-0.02-0.64,0.01c-0.28,0.05-0.95,1.37-1.41,2.57c-0.01,0.02-0.6,1.54-2.06,1.23
				c-1.25-0.26-1.85,0.75-1.86,0.76l-0.01,0.02l-0.01,0.01c-0.05,0.05-5.46,5.34-10.86,10.57C25.33,38.08,25.09,38.16,24.98,38.19z
				 M23.27,35.84c0.05,0.15,0.35,0.71,0.72,1.23c0.51,0.73,0.8,0.89,0.9,0.87c0.67-0.39,14.69-14.03,22.04-21.22
				c0.09-0.15,0.8-1.16,2.14-0.87c1.23,0.26,1.73-1.01,1.75-1.07c0.24-0.62,1.05-2.64,1.61-2.74c0.21-0.04,0.45-0.02,0.7-0.01
				c0.41,0.02,0.83,0.05,1.18-0.14c0.33-0.18,0.78-0.73,0.95-1.33c0.07-0.25,0.12-0.6-0.05-0.89c-0.4-0.69-1.52-0.76-2-0.69
				c-0.35,0.07-4.48,2.58-7.17,4.25l-0.02,0.01l-0.02,0c-0.01,0-0.17,0.04-0.29,0.23c-0.13,0.21-0.15,0.54-0.05,0.94
				c0.3,1.23-1.35,2.46-1.49,2.56l-17.9,16.05l-0.01,0C25.39,33.64,23.34,35.49,23.27,35.84z M23.27,35.85
				C23.27,35.85,23.27,35.85,23.27,35.85L23.27,35.85z"/>
		</g>
	</g>
	<g>
		<g>
			<path class="st0" d="M46.91,14.66c-0.3,0.09-0.62-0.08-0.72-0.38c-0.09-0.3,0.08-0.62,0.38-0.72c0.3-0.09,0.62,0.08,0.72,0.38
				C47.38,14.24,47.21,14.56,46.91,14.66z M46.65,13.82c-0.16,0.05-0.25,0.22-0.2,0.38c0.05,0.16,0.22,0.25,0.38,0.2
				c0.16-0.05,0.25-0.22,0.2-0.38C46.98,13.86,46.81,13.77,46.65,13.82z"/>
		</g>
	</g>
	<g>
		<g>
			<path class="st0" d="M48.94,13.47c-0.3,0.09-0.62-0.06-0.71-0.35c-0.09-0.28,0.09-0.59,0.39-0.68c0.3-0.09,0.62,0.06,0.71,0.35
				C49.42,13.07,49.25,13.37,48.94,13.47z M48.71,12.69c-0.16,0.05-0.25,0.2-0.21,0.35c0.04,0.14,0.21,0.22,0.37,0.17
				c0.16-0.05,0.25-0.2,0.21-0.35C49.03,12.72,48.87,12.64,48.71,12.69z"/>
		</g>
	</g>
	<g>
		<g>
			<path class="st0" d="M51,12.34c-0.3,0.09-0.62-0.08-0.72-0.38c-0.09-0.3,0.08-0.62,0.38-0.72c0.3-0.09,0.62,0.08,0.72,0.38
				C51.47,11.93,51.3,12.25,51,12.34z M50.74,11.5c-0.16,0.05-0.25,0.22-0.2,0.38c0.05,0.16,0.22,0.25,0.38,0.2
				c0.16-0.05,0.25-0.22,0.2-0.38C51.07,11.54,50.9,11.45,50.74,11.5z"/>
		</g>
	</g>
	<g>
		<g>
			<path class="st0" d="M53.02,11.01c-0.28,0.09-0.59-0.07-0.67-0.36c-0.09-0.28,0.07-0.59,0.36-0.67c0.28-0.09,0.59,0.07,0.67,0.36
				C53.47,10.62,53.31,10.92,53.02,11.01z M52.78,10.24c-0.14,0.04-0.22,0.19-0.18,0.34c0.04,0.14,0.19,0.22,0.34,0.18
				s0.22-0.19,0.18-0.34C53.08,10.27,52.93,10.19,52.78,10.24z"/>
		</g>
	</g>
	<g>
		<g>
			<path class="st0" d="M45.94,12.69c-0.13,0.04-0.26,0.06-0.38,0.06c-0.26,0-0.46-0.1-0.56-0.27l0,0c-0.1-0.17-0.09-0.39,0.03-0.62
				c0.11-0.21,0.3-0.4,0.54-0.54c0.24-0.14,0.5-0.22,0.73-0.21c0.26,0,0.46,0.1,0.56,0.27c0.1,0.17,0.09,0.39-0.03,0.62
				c-0.11,0.21-0.3,0.4-0.54,0.54C46.18,12.6,46.06,12.65,45.94,12.69z M46,11.42c-0.1,0.03-0.2,0.07-0.29,0.13
				c-0.2,0.12-0.35,0.27-0.44,0.43c-0.04,0.08-0.11,0.24-0.03,0.36l0,0c0.07,0.12,0.24,0.14,0.33,0.14c0.18,0,0.39-0.06,0.59-0.18
				c0.2-0.12,0.35-0.27,0.44-0.43c0.04-0.08,0.11-0.24,0.03-0.36c-0.07-0.12-0.24-0.14-0.33-0.14C46.2,11.37,46.1,11.38,46,11.42z"
				/>
		</g>
	</g>
	<g>
		<g>
			<path class="st0" d="M47.95,11.43c-0.13,0.04-0.26,0.06-0.38,0.06c-0.26,0-0.46-0.1-0.56-0.27l0,0c-0.1-0.17-0.09-0.39,0.03-0.62
				c0.11-0.21,0.3-0.4,0.54-0.54c0.24-0.14,0.5-0.22,0.73-0.21c0.26,0,0.46,0.1,0.56,0.27c0.1,0.17,0.09,0.39-0.03,0.62
				c-0.11,0.21-0.3,0.4-0.54,0.54C48.19,11.35,48.07,11.4,47.95,11.43z M48.01,10.16c-0.1,0.03-0.2,0.07-0.29,0.13
				c-0.2,0.12-0.35,0.27-0.44,0.43c-0.04,0.08-0.11,0.24-0.03,0.36l0,0c0.07,0.12,0.24,0.14,0.33,0.14c0.18,0,0.39-0.06,0.59-0.18
				c0.2-0.12,0.35-0.27,0.44-0.43c0.04-0.08,0.11-0.24,0.03-0.36c-0.07-0.12-0.24-0.14-0.33-0.14
				C48.21,10.11,48.11,10.13,48.01,10.16z"/>
		</g>
	</g>
	<g>
		<g>
			<path class="st0" d="M50.01,10.31c-0.13,0.04-0.26,0.06-0.38,0.06c-0.26,0-0.46-0.1-0.56-0.27l0,0c-0.1-0.17-0.09-0.39,0.03-0.62
				c0.11-0.21,0.3-0.4,0.54-0.54c0.24-0.14,0.5-0.22,0.73-0.21c0.26,0,0.46,0.1,0.56,0.27c0.1,0.17,0.09,0.39-0.03,0.62
				c-0.11,0.21-0.3,0.4-0.54,0.54C50.24,10.22,50.12,10.27,50.01,10.31z M50.06,9.04c-0.1,0.03-0.2,0.07-0.29,0.13
				c-0.2,0.12-0.35,0.27-0.44,0.43c-0.04,0.08-0.11,0.24-0.03,0.36l0,0c0.07,0.12,0.24,0.14,0.33,0.14c0.18,0,0.39-0.06,0.59-0.18
				c0.2-0.12,0.35-0.27,0.44-0.43c0.04-0.08,0.11-0.24,0.03-0.36c-0.07-0.12-0.24-0.14-0.33-0.14C50.27,8.99,50.17,9.01,50.06,9.04z
				"/>
		</g>
	</g>
	<g>
		<g>
			<path class="st0" d="M52.08,9.04c-0.13,0.04-0.26,0.06-0.38,0.06c-0.26,0-0.46-0.1-0.56-0.27l0,0c-0.1-0.17-0.09-0.39,0.03-0.62
				c0.11-0.21,0.3-0.4,0.54-0.54c0.24-0.14,0.5-0.22,0.73-0.21c0.26,0,0.46,0.1,0.56,0.27c0.1,0.17,0.09,0.39-0.03,0.62
				c-0.11,0.21-0.3,0.4-0.54,0.54C52.32,8.95,52.2,9,52.08,9.04z M52.14,7.76c-0.1,0.03-0.2,0.07-0.29,0.13
				c-0.2,0.12-0.35,0.27-0.44,0.43c-0.04,0.08-0.11,0.24-0.03,0.36l0,0c0.07,0.12,0.24,0.14,0.33,0.14c0.18,0,0.39-0.06,0.59-0.18
				c0.2-0.12,0.35-0.27,0.44-0.43c0.04-0.08,0.11-0.24,0.03-0.36c-0.07-0.12-0.24-0.14-0.33-0.14C52.34,7.72,52.24,7.73,52.14,7.76z
				"/>
		</g>
	</g>
	<g>
		<g>
			<path class="st0" d="M14.42,49.03l-2.88-3.02l1.53-1.75l0.1,0.1c0.11,0.1,2.62,2.53,2.92,3.02l0.06,0.1L14.42,49.03z M11.91,46
				l2.53,2.65l1.36-1.23c-0.39-0.5-1.97-2.06-2.71-2.77L11.91,46z"/>
		</g>
	</g>
	<g>
		<g>
			<path class="st0" d="M17.89,46.11l-0.06-0.21c-0.14-0.22-2.07-2.14-3.26-3.31l-0.11-0.1l0.99-0.84l3.39,3.5L17.89,46.11z
				 M14.87,42.5c1.06,1.04,2.66,2.62,3.1,3.15l0.5-0.51l-3.03-3.13L14.87,42.5z"/>
		</g>
	</g>
	<g>
		<g>
			<path class="st0" d="M21.31,42.76l-3.24-3.49l0.78-0.8l3.31,3.47L21.31,42.76z M18.45,39.27l2.88,3.1l0.46-0.44l-2.93-3.07
				L18.45,39.27z"/>
		</g>
	</g>
	<g>
		<g>
			<path class="st0" d="M19.86,51.66c-0.04,0.01-0.08,0.02-0.12,0.02c-0.26,0-0.51-0.14-0.69-0.4c-0.33-0.47-0.51-1.45-0.01-2.78
				c0.67-1.79,0.32-3.47-0.1-5.04c-0.24-0.91-0.78-1.59-1.31-2.24c-0.46-0.58-0.89-1.12-1.05-1.76c-0.36-1.42,1.23-2.29,2.09-2.75
				c0.36-0.19,0.98-0.46,1.64-0.74c1.04-0.44,2.21-0.94,2.65-1.28c0.3-0.24,0.57-0.66,0.8-1.03c0.34-0.54,0.64-1.01,1.02-0.85
				c0.35,0.15,0.61,1.37,1.04,3.88c0.1,0.59,0.19,1.1,0.24,1.27c0.13,0.43,0.7,0.92,1.67,1.43c0.38,0.2,1.25-0.11,1.83-0.31
				c0.57-0.2,0.81-0.28,0.94-0.16c0.05,0.05,0.07,0.12,0.06,0.2l0,0c-0.58,2.65-4.55,4.43-5.9,4.85c-1.26,0.39-1.52,0.87-1.75,1.29
				c-0.07,0.12-0.13,0.24-0.21,0.34c-0.31,0.41-0.59,1.44-0.73,2.29C21.88,48.55,20.71,51.4,19.86,51.66z M24.61,33.06
				c-0.17,0.05-0.4,0.42-0.61,0.75c-0.25,0.39-0.52,0.83-0.87,1.1c-0.47,0.37-1.66,0.87-2.71,1.32c-0.65,0.28-1.27,0.54-1.62,0.73
				c-0.85,0.46-2.27,1.23-1.96,2.45c0.15,0.58,0.56,1.1,1,1.66c0.51,0.65,1.1,1.38,1.36,2.34C19.64,45,20,46.73,19.3,48.6
				c-0.46,1.23-0.3,2.13-0.02,2.53c0.09,0.13,0.25,0.29,0.47,0.28c0.18,0,0.59-0.39,1.15-1.49c0.44-0.85,0.77-1.74,0.83-2.08
				c0.14-0.82,0.42-1.94,0.78-2.41c0.07-0.09,0.13-0.2,0.19-0.31c0.24-0.44,0.54-1,1.9-1.42c1.63-0.5,5.12-2.27,5.69-4.57
				c-0.14,0.02-0.4,0.12-0.62,0.2c-0.7,0.25-1.57,0.55-2.05,0.3c-1.05-0.56-1.64-1.08-1.8-1.59c-0.06-0.18-0.14-0.67-0.25-1.3
				c-0.12-0.72-0.28-1.62-0.44-2.35c-0.26-1.17-0.41-1.31-0.44-1.32C24.66,33.05,24.64,33.05,24.61,33.06z M30.44,39.09l-0.13-0.03
				c0,0,0,0,0,0L30.44,39.09l-0.13-0.03L30.44,39.09z"/>
		</g>
	</g>
</g>
<g>
	<g>
		<g>
			<path d="M79.43,46.5c0.17-1.4,1.41-3.51,3.42-4.51c2-1,4.69-3.32,3.92-5.74c-0.77-2.41-7.24-8.33-8.7-8.88
				c-1.46-0.55-3.28,0.27-4.74,2.09c-1.46,1.82-2.46,4.19-5.33,5.06c-2.87,0.87-6.51,2.05-8.11,4.28s-2.37,4.83-1,7.56
				c1.37,2.73,5.06,5.97,5.06,5.97s1.87,2.41,6.15,3.51c1.23,0.23,3.73,0.09,5.01-1.28C76.38,53.19,79.07,49.51,79.43,46.5z"/>
		</g>
		<g>
			<path class="st0" d="M75.12,54.73c-1.33,1.33-3.79,1.47-5.05,1.23l-0.01,0c-4.13-1.05-6.07-3.37-6.21-3.54
				c-0.2-0.18-3.75-3.34-5.08-6c-1.22-2.45-0.88-5.04,1.01-7.69c1.57-2.19,5.04-3.38,8.17-4.33c2.19-0.66,3.28-2.22,4.33-3.73
				c0.3-0.43,0.61-0.87,0.94-1.28c1.51-1.88,3.38-2.7,4.88-2.14c1.53,0.57,7.99,6.51,8.78,8.96c0.36,1.12,0.03,2.33-0.94,3.52
				c-0.74,0.9-1.88,1.79-3.04,2.37c-1.94,0.97-3.17,3-3.35,4.41l-0.13-0.02l0.13,0.02c-0.39,3.25-3.35,7.06-4.36,8.13
				C75.18,54.68,75.15,54.7,75.12,54.73z M70.12,55.71c1.3,0.24,3.62,0.03,4.82-1.17c0.02-0.02,0.05-0.05,0.07-0.07
				c0.99-1.06,3.91-4.81,4.29-7.99c0.18-1.48,1.46-3.6,3.49-4.61c1.13-0.57,2.24-1.43,2.96-2.31c0.64-0.78,1.31-1.98,0.89-3.28
				c-0.76-2.37-7.22-8.27-8.62-8.8c-1.4-0.52-3.16,0.26-4.59,2.05c-0.32,0.4-0.62,0.82-0.93,1.27c-1.08,1.54-2.19,3.14-4.46,3.83
				c-3.09,0.93-6.52,2.11-8.04,4.23c-1.84,2.57-2.17,5.07-0.99,7.43c1.34,2.68,4.99,5.89,5.02,5.93l0.01,0.01l0.01,0.01
				C64.07,52.27,65.94,54.64,70.12,55.71z"/>
		</g>
	</g>
	<g>
		<g>
			<path d="M77.7,34.2c0.18,0.27,2.41,2.41,2.41,2.41L98.7,17.13c0,0,1.59,0.14,2.78-1.41c1.18-1.55,1.5-1.87,2.46-2.46
				c0.96-0.59,0.82-1.37,0.46-1.64c-0.36-0.27-2.14-2.23-2.82-1.91c-0.68,0.32-0.5,1.05-1,1.46c-0.5,0.41-2.87,2.32-3.19,2.91
				c-0.32,0.59-0.36,1.64-0.36,1.64L77.7,34.2z"/>
		</g>
		<g>
			<path class="st0" d="M104.4,13.06c-0.1,0.1-0.23,0.21-0.4,0.31c-0.94,0.58-1.25,0.9-2.42,2.43c-1.09,1.43-2.51,1.47-2.83,1.47
				L80.12,36.8l-0.09-0.09c-0.23-0.22-2.25-2.16-2.43-2.44l-0.06-0.09l0.08-0.07l19.27-18.45c0.01-0.22,0.09-1.1,0.38-1.64
				c0.21-0.39,1.23-1.33,3.12-2.87l0.1-0.08c0.19-0.16,0.27-0.38,0.36-0.61c0.11-0.31,0.24-0.66,0.67-0.86
				c0.57-0.26,1.58,0.63,2.56,1.56c0.17,0.17,0.32,0.31,0.4,0.36c0.21,0.16,0.34,0.44,0.33,0.73
				C104.78,12.43,104.72,12.74,104.4,13.06z M102.7,14.03c0.35-0.35,0.68-0.59,1.17-0.89c0.42-0.26,0.65-0.58,0.67-0.91
				c0.01-0.21-0.08-0.41-0.22-0.52c-0.08-0.06-0.23-0.2-0.42-0.38c-0.54-0.52-1.82-1.73-2.27-1.52c-0.33,0.16-0.43,0.42-0.54,0.72
				c-0.09,0.25-0.19,0.52-0.44,0.72l-0.1,0.08c-1.84,1.5-2.86,2.44-3.06,2.79c-0.3,0.56-0.35,1.57-0.35,1.58l0,0.05l-0.04,0.04
				L77.88,34.22c0.3,0.34,1.43,1.45,2.24,2.22l18.53-19.44L98.71,17c0.01,0,1.54,0.11,2.66-1.36
				C101.97,14.86,102.35,14.38,102.7,14.03z"/>
		</g>
	</g>
	<g>
		<g>
			<circle cx="76.88" cy="37.21" r="3.41"/>
		</g>
		<g>
			<path class="st0" d="M79.39,39.71c-1.38,1.38-3.63,1.38-5.01,0s-1.38-3.63,0-5.01s3.63-1.38,5.01,0S80.77,38.33,79.39,39.71z
				 M74.56,34.89c-1.28,1.28-1.28,3.36,0,4.65c1.28,1.28,3.36,1.28,4.65,0c1.28-1.28,1.28-3.36,0-4.65
				C77.92,33.61,75.84,33.61,74.56,34.89z"/>
		</g>
	</g>
	<g>
		<g>
			<circle cx="76.88" cy="37.21" r="2.71"/>
		</g>
		<g>
			<path class="st0" d="M78.89,39.21c-1.1,1.1-2.9,1.1-4.01,0c-1.1-1.1-1.1-2.9,0-4.01c1.1-1.1,2.9-1.1,4.01,0
				C79.99,36.31,79.99,38.11,78.89,39.21z M75.06,35.39c-1,1-1,2.64,0,3.64s2.64,1,3.64,0s1-2.64,0-3.64
				C77.7,34.38,76.07,34.38,75.06,35.39z"/>
		</g>
	</g>
	<g>
		<g>
			<path d="M74.88,45.86c-0.59-0.68-6.6-6.69-6.6-6.69l-0.68,1.5c0,0,0.36,0.27,0.5,0.5c0.14,0.23,0.59,1.78,1.46,2.64
				c0.87,0.87,1.82,1.73,2.6,1.87c0.77,0.14,1.46,0.91,1.46,0.91L74.88,45.86z"/>
		</g>
		<g>
			<path class="st0" d="M75.08,45.9l-1.5,0.86l-0.07-0.08c-0.01-0.01-0.66-0.74-1.38-0.87c-0.81-0.14-1.8-1.04-2.66-1.9
				c-0.69-0.69-1.11-1.76-1.34-2.34c-0.06-0.15-0.11-0.28-0.14-0.32c-0.1-0.17-0.37-0.39-0.47-0.46l-0.08-0.06l0.8-1.77l0.13,0.13
				c0.25,0.25,6.02,6.02,6.61,6.7L75.08,45.9z M73.63,46.43l1.05-0.6c-0.9-0.97-5.52-5.6-6.36-6.44l-0.56,1.24
				c0.12,0.1,0.35,0.29,0.45,0.47c0.04,0.06,0.08,0.18,0.16,0.36c0.22,0.56,0.64,1.61,1.28,2.26c0.83,0.83,1.78,1.7,2.53,1.83
				C72.84,45.67,73.43,46.22,73.63,46.43z"/>
		</g>
	</g>
	<g>
		<g>
			<path d="M100.97,16.58c-0.06-0.03-0.82,0.82-0.82,0.82s0.23,0.23,0.46,0.27c0.23,0.05,0.55-0.09,0.68-0.32
				S101.29,16.72,100.97,16.58z"/>
		</g>
		<g>
			<path class="st0" d="M101.3,17.56c-0.19,0.19-0.47,0.29-0.71,0.24c-0.26-0.05-0.5-0.28-0.52-0.31l-0.09-0.09l0.08-0.09
				c0.82-0.91,0.87-0.89,0.97-0.85l0,0c0.19,0.08,0.35,0.26,0.41,0.47c0.06,0.18,0.05,0.36-0.04,0.49
				C101.37,17.47,101.34,17.51,101.3,17.56z M100.34,17.39c0.08,0.06,0.19,0.14,0.3,0.16c0.17,0.03,0.43-0.07,0.55-0.26
				c0.04-0.07,0.05-0.17,0.01-0.28c-0.04-0.12-0.12-0.22-0.21-0.28C100.87,16.82,100.59,17.11,100.34,17.39z"/>
		</g>
	</g>
	<g>
		<g>
			<path d="M102.75,14.8c-0.06-0.03-0.82,0.82-0.82,0.82s0.23,0.23,0.46,0.27c0.23,0.05,0.55-0.09,0.68-0.32
				S103.07,14.94,102.75,14.8z"/>
		</g>
		<g>
			<path class="st0" d="M103.07,15.78c-0.19,0.19-0.47,0.29-0.71,0.24c-0.26-0.05-0.5-0.28-0.52-0.31l-0.09-0.09l0.08-0.09
				c0.82-0.91,0.87-0.89,0.97-0.85l0,0c0.19,0.08,0.35,0.26,0.41,0.47c0.06,0.18,0.05,0.36-0.04,0.49
				C103.15,15.69,103.11,15.74,103.07,15.78z M102.11,15.61c0.08,0.06,0.19,0.14,0.3,0.16c0.17,0.03,0.43-0.07,0.55-0.26
				c0.04-0.07,0.05-0.17,0.01-0.28c-0.04-0.12-0.12-0.22-0.21-0.28C102.64,15.05,102.37,15.33,102.11,15.61z"/>
		</g>
	</g>
	<g>
		<g>
			<path d="M104.3,13.25c-0.06-0.03-0.82,0.82-0.82,0.82s0.23,0.23,0.46,0.27c0.23,0.05,0.55-0.09,0.68-0.32
				C104.75,13.8,104.62,13.39,104.3,13.25z"/>
		</g>
		<g>
			<path class="st0" d="M104.62,14.23c-0.19,0.19-0.47,0.29-0.71,0.24c-0.26-0.05-0.5-0.28-0.52-0.31l-0.09-0.09l0.08-0.09
				c0.82-0.91,0.87-0.89,0.97-0.85l0,0c0.19,0.08,0.35,0.26,0.41,0.47c0.06,0.18,0.05,0.36-0.04,0.49
				C104.7,14.14,104.66,14.19,104.62,14.23z M103.66,14.06c0.08,0.06,0.19,0.14,0.3,0.16c0.17,0.03,0.44-0.07,0.55-0.26
				c0.04-0.07,0.05-0.17,0.01-0.28c-0.04-0.12-0.12-0.22-0.21-0.28C104.19,13.5,103.92,13.79,103.66,14.06z"/>
		</g>
	</g>
	<g>
		<g>
			<path d="M100.13,10.9c0.06,0.03,0.82-0.82,0.82-0.82s-0.23-0.23-0.46-0.27c-0.23-0.05-0.55,0.09-0.68,0.32
				C99.67,10.36,99.81,10.77,100.13,10.9z"/>
		</g>
		<g>
			<path class="st0" d="M100.48,10.78c-0.29,0.29-0.34,0.27-0.4,0.25c-0.19-0.08-0.35-0.26-0.41-0.47
				c-0.06-0.18-0.05-0.36,0.04-0.49c0.16-0.27,0.53-0.44,0.82-0.38c0.26,0.05,0.5,0.28,0.52,0.31l0.09,0.09l-0.08,0.09
				C100.79,10.45,100.61,10.65,100.48,10.78z M100.18,10.79C100.18,10.79,100.18,10.79,100.18,10.79L100.18,10.79
				C100.18,10.79,100.18,10.79,100.18,10.79z M100.12,10.76c0.11-0.1,0.39-0.38,0.64-0.66c-0.08-0.06-0.19-0.14-0.3-0.16
				c-0.17-0.03-0.43,0.07-0.55,0.26c-0.04,0.07-0.05,0.17-0.01,0.28C99.95,10.6,100.03,10.7,100.12,10.76z"/>
		</g>
	</g>
	<g>
		<g>
			<path d="M98.35,12.68c0.06,0.03,0.82-0.82,0.82-0.82s-0.23-0.23-0.46-0.27c-0.23-0.05-0.55,0.09-0.68,0.32
				S98.03,12.54,98.35,12.68z"/>
		</g>
		<g>
			<path class="st0" d="M98.7,12.55c-0.29,0.29-0.34,0.27-0.4,0.25c-0.19-0.08-0.35-0.26-0.41-0.47c-0.06-0.18-0.05-0.36,0.04-0.49
				c0.16-0.27,0.53-0.44,0.82-0.38c0.26,0.05,0.5,0.28,0.52,0.31l0.09,0.09l-0.08,0.09C99.01,12.23,98.83,12.42,98.7,12.55z
				 M98.4,12.56C98.4,12.56,98.4,12.56,98.4,12.56L98.4,12.56C98.4,12.56,98.4,12.56,98.4,12.56z M98.35,12.53
				c0.11-0.1,0.39-0.38,0.64-0.66c-0.08-0.06-0.19-0.14-0.3-0.16c-0.17-0.03-0.43,0.07-0.55,0.26c-0.04,0.07-0.05,0.17-0.01,0.28
				C98.17,12.37,98.25,12.47,98.35,12.53z"/>
		</g>
	</g>
	<g>
		<g>
			<path d="M96.8,14.23c0.06,0.03,0.82-0.82,0.82-0.82s-0.23-0.23-0.46-0.27c-0.23-0.05-0.55,0.09-0.68,0.32
				C96.35,13.68,96.48,14.09,96.8,14.23z"/>
		</g>
		<g>
			<path class="st0" d="M97.15,14.1c-0.29,0.29-0.34,0.27-0.4,0.25c-0.19-0.08-0.35-0.26-0.41-0.47c-0.06-0.18-0.05-0.36,0.04-0.49
				c0.16-0.27,0.53-0.44,0.82-0.38c0.26,0.05,0.5,0.28,0.52,0.31l0.09,0.09l-0.08,0.09C97.47,13.78,97.29,13.97,97.15,14.1z
				 M96.85,14.11C96.85,14.11,96.85,14.11,96.85,14.11L96.85,14.11C96.85,14.11,96.85,14.11,96.85,14.11z M96.8,14.08
				c0.11-0.1,0.39-0.38,0.64-0.66c-0.08-0.06-0.19-0.14-0.3-0.16c-0.17-0.03-0.43,0.07-0.55,0.26c-0.04,0.07-0.05,0.17-0.01,0.28
				C96.62,13.92,96.7,14.02,96.8,14.08z"/>
		</g>
	</g>
	<g>
		<g>
			<ellipse transform="matrix(0.7071 -0.7071 0.7071 0.7071 18.5098 73.7002)" cx="98.22" cy="14.51" rx="0.35" ry="0.32"/>
		</g>
		<g>
			<path class="st0" d="M98.54,14.83c-0.19,0.19-0.48,0.2-0.66,0.02c-0.18-0.18-0.17-0.47,0.02-0.66c0.19-0.19,0.48-0.2,0.66-0.02
				S98.73,14.64,98.54,14.83z M98.08,14.37c-0.09,0.09-0.1,0.22-0.02,0.3s0.21,0.07,0.3-0.02s0.1-0.22,0.02-0.3
				S98.17,14.28,98.08,14.37z"/>
		</g>
	</g>
	<g>
		<g>
			<ellipse transform="matrix(0.7071 -0.7071 0.7071 0.7071 17.8684 75.2486)" cx="99.77" cy="16.06" rx="0.35" ry="0.32"/>
		</g>
		<g>
			<path class="st0" d="M100.09,16.37c-0.19,0.19-0.48,0.2-0.66,0.02s-0.17-0.47,0.02-0.66c0.19-0.19,0.48-0.2,0.66-0.02
				C100.28,15.89,100.27,16.19,100.09,16.37z M99.63,15.92c-0.09,0.09-0.1,0.22-0.02,0.3s0.21,0.07,0.3-0.02
				c0.09-0.09,0.1-0.22,0.02-0.3S99.72,15.83,99.63,15.92z"/>
		</g>
	</g>
	<g>
		<g>
			<ellipse transform="matrix(0.7071 -0.7071 0.7071 0.7071 20.0127 74.3227)" cx="99.72" cy="13" rx="0.35" ry="0.32"/>
		</g>
		<g>
			<path class="st0" d="M100.04,13.32c-0.19,0.19-0.48,0.2-0.66,0.02c-0.18-0.18-0.17-0.47,0.02-0.66c0.19-0.19,0.48-0.2,0.66-0.02
				C100.24,12.84,100.23,13.13,100.04,13.32z M99.59,12.87c-0.09,0.09-0.1,0.22-0.02,0.3s0.21,0.07,0.3-0.02s0.1-0.22,0.02-0.3
				S99.67,12.78,99.59,12.87z"/>
		</g>
	</g>
	<g>
		<g>
			<ellipse transform="matrix(0.7071 -0.7071 0.7071 0.7071 19.3713 75.8712)" cx="101.27" cy="14.55" rx="0.35" ry="0.32"/>
		</g>
		<g>
			<path class="st0" d="M101.59,14.87c-0.19,0.19-0.48,0.2-0.66,0.02c-0.18-0.18-0.17-0.47,0.02-0.66c0.19-0.19,0.48-0.2,0.66-0.02
				C101.79,14.39,101.78,14.68,101.59,14.87z M101.13,14.42c-0.09,0.09-0.1,0.22-0.02,0.3s0.21,0.07,0.3-0.02
				c0.09-0.09,0.1-0.22,0.02-0.3S101.22,14.33,101.13,14.42z"/>
		</g>
	</g>
	<g>
		<g>
			<ellipse transform="matrix(0.7071 -0.7071 0.7071 0.7071 21.6522 75.0018)" cx="101.36" cy="11.36" rx="0.35" ry="0.32"/>
		</g>
		<g>
			<path class="st0" d="M101.68,11.68c-0.19,0.19-0.48,0.2-0.66,0.02c-0.18-0.18-0.17-0.47,0.02-0.66c0.19-0.19,0.48-0.2,0.66-0.02
				C101.88,11.2,101.87,11.49,101.68,11.68z M101.22,11.23c-0.09,0.09-0.1,0.22-0.02,0.3s0.21,0.07,0.3-0.02s0.1-0.22,0.02-0.3
				S101.31,11.14,101.22,11.23z"/>
		</g>
	</g>
	<g>
		<g>
			<ellipse transform="matrix(0.7071 -0.7071 0.7071 0.7071 21.0297 76.5047)" cx="102.86" cy="12.87" rx="0.35" ry="0.32"/>
		</g>
		<g>
			<path class="st0" d="M103.18,13.19c-0.19,0.19-0.48,0.2-0.66,0.02c-0.18-0.18-0.17-0.47,0.02-0.66c0.19-0.19,0.48-0.2,0.66-0.02
				C103.38,12.7,103.37,13,103.18,13.19z M102.73,12.73c-0.09,0.09-0.1,0.22-0.02,0.3s0.21,0.07,0.3-0.02s0.1-0.22,0.02-0.3
				S102.82,12.64,102.73,12.73z"/>
		</g>
	</g>
</g>
<g>
	<g>
		<path class="st0" d="M130.28,48.11c-0.07,0-0.14-0.01-0.21-0.04c-0.53-0.24-0.36-0.82-0.3-1.03c0.47-1.64,0.49-3.34,0.05-5.05
			c-0.77-2.99-2.58-5.33-5.37-6.93c-0.12-0.07-0.25-0.13-0.37-0.18c-0.34-0.16-0.72-0.33-1.01-0.71c-0.15,0.15-0.4,0.31-0.73,0.12
			c-0.51-0.28-1.16-0.26-1.78-0.23c-0.14,0.01-0.35,0.02-0.51-0.13c-0.07-0.07-0.16-0.19-0.16-0.39c0-0.15,0.07-0.3,0.2-0.47
			c0.12-0.15,0.25-0.24,0.39-0.28c1.22-0.39,1.27-1.25,1.26-2.61c-0.04-2.98,0-6,0.04-8.93l0.02-1.54c0-0.3-0.05-0.41-0.09-0.45
			c-0.07-0.07-0.22-0.08-0.33-0.08l-0.08,0c-1.22,0.01-2.48,0.02-3.71-0.32c-0.08-0.02-0.16-0.04-0.24-0.05
			c-0.15-0.03-0.32-0.06-0.49-0.13c-0.04-0.02-0.08-0.03-0.13-0.04c-0.19-0.05-0.6-0.16-0.65-0.6c-0.08-0.69,0.59-0.83,0.82-0.87
			l0.4-0.09c0.68-0.15,1.38-0.3,2.09-0.33c0.89-0.03,1.7-0.29,2.47-0.81l0.08-0.06c0.17-0.12,0.5-0.36,0.92,0.01
			c0.78,0.69,1.75,0.79,2.77,0.91c0.4,0.05,0.82,0.09,1.23,0.18c0.12,0.02,0.26,0.04,0.41,0.05c0.51,0.05,1.28,0.12,1.32,0.85
			c0.04,0.77-0.78,0.88-1.27,0.95c-0.13,0.02-0.26,0.03-0.37,0.06c-0.98,0.22-2.05,0.31-3.36,0.28c-0.1,0-0.42-0.01-0.51,0.08
			c-0.05,0.05-0.09,0.2-0.08,0.41c0.02,2.34,0.03,4.73,0.03,7.03c0,1.53,0,3.06,0.01,4.58c0,0.02,0,0.04,0,0.06
			c2.72-1.18,5.37-0.72,8.1,1.43c2.52,1.98,3.93,4.75,4.19,8.23l0,0.03l0,0.03c-0.15,1.95-0.59,4.13-2.7,5.5
			c-0.35,0.23-0.66,0.49-1,0.77c-0.22,0.18-0.44,0.37-0.67,0.54C130.84,47.92,130.56,48.11,130.28,48.11z M123.07,33.3
			c0.01,0,0.02,0,0.03,0c0.26,0.02,0.39,0.24,0.43,0.32c0.18,0.31,0.48,0.45,0.82,0.6c0.15,0.07,0.29,0.13,0.43,0.21
			c2.96,1.7,4.88,4.18,5.7,7.37c0.47,1.84,0.46,3.65-0.05,5.41c-0.01,0.04-0.03,0.09-0.04,0.14c0.03-0.02,0.07-0.04,0.11-0.07
			c0.22-0.17,0.43-0.34,0.64-0.52c0.34-0.28,0.69-0.57,1.07-0.82c1.84-1.2,2.24-3.09,2.38-4.94c-0.25-3.26-1.57-5.85-3.92-7.7
			c-2.54-2-4.99-2.42-7.5-1.29c-0.11,0.05-0.44,0.2-0.7,0c-0.09-0.07-0.14-0.16-0.17-0.25c-0.15,0.64-0.51,1.21-1.32,1.56
			c0.52-0.01,1.08,0.04,1.59,0.29c0.01-0.01,0.02-0.03,0.03-0.04C122.7,33.48,122.84,33.3,123.07,33.3z M120.57,33.59L120.57,33.59
			L120.57,33.59z M121.38,18.47c0.36,0,0.63,0.09,0.82,0.29c0.08,0.08,0.14,0.17,0.18,0.27c0.05-0.11,0.11-0.2,0.19-0.28
			c0.26-0.26,0.64-0.29,1.02-0.28c1.25,0.03,2.26-0.05,3.18-0.26c0.13-0.03,0.28-0.05,0.43-0.07c0.43-0.06,0.67-0.11,0.66-0.22
			c-0.01-0.12-0.41-0.16-0.68-0.18c-0.16-0.02-0.33-0.03-0.49-0.06c-0.38-0.08-0.76-0.12-1.16-0.17c-1.09-0.12-2.21-0.25-3.16-1.08
			c0,0,0,0,0,0c-0.01,0.01-0.03,0.02-0.04,0.03c-0.03,0.02-0.06,0.05-0.1,0.07c-0.88,0.59-1.81,0.89-2.83,0.93
			c-0.65,0.02-1.31,0.17-1.96,0.31l-0.41,0.09c-0.07,0.01-0.2,0.04-0.25,0.07c0.04,0.01,0.09,0.03,0.12,0.04
			c0.08,0.02,0.15,0.04,0.21,0.07c0.1,0.04,0.22,0.06,0.35,0.09c0.1,0.02,0.2,0.04,0.3,0.06c1.14,0.31,2.3,0.3,3.52,0.3l0.08,0
			C121.37,18.47,121.37,18.47,121.38,18.47z M116.76,17.93C116.76,17.93,116.76,17.94,116.76,17.93
			C116.76,17.94,116.76,17.94,116.76,17.93z"/>
	</g>
	<g>
		<path class="st0" d="M130.19,32.07c-0.19,0-0.37-0.09-0.51-0.15c-1.5-0.72-3.1-1.38-4.84-0.9c-0.09,0.03-0.37,0.1-0.6-0.07
			c-0.22-0.16-0.22-0.43-0.23-0.6c-0.01-0.47-0.01-0.92-0.01-1.38l0-0.55c-0.03-0.3-0.03-0.6-0.03-0.9c0-0.57,0-1.1-0.19-1.64
			c-0.16-0.43-0.09-0.84,0.18-1.15c0.32-0.35,0.85-0.47,1.41-0.33c0.33,0.09,0.66,0.11,1.01,0.13l0.19,0.01
			c0.37,0.03,0.61-0.01,0.72-0.12c0.09-0.09,0.13-0.25,0.12-0.49c-0.01-0.37,0.09-0.63,0.31-0.77c0.21-0.13,0.48-0.12,0.8,0.04
			c1.55,0.78,3.3,0.96,4.98,1.13c0.26,0.03,0.52,0.05,0.77,0.08c0.82,0.09,1.68,0.07,2.51,0.06c0.3-0.01,0.59-0.01,0.89-0.01
			c0.63,0,0.96,0,1.19,0.24c0.24,0.25,0.21,0.62,0.16,1.24c-0.03,0.45-0.09,0.9-0.15,1.34c-0.04,0.31-0.08,0.63-0.11,0.94
			c-0.04,0.35-0.16,0.83-0.84,0.99l-0.07,0.02c-0.45,0.11-0.93,0.23-1.42,0.23c-2.81-0.01-5.55-0.4-8.13-1.14
			c-0.44-0.13-1.37-0.4-1.2-1.55c0.05-0.35,0.02-0.44-0.01-0.47c-0.02-0.02-0.11-0.06-0.31-0.05c-0.09,0-0.17,0-0.26,0
			c-0.71,0-0.86,0.07-0.89,0.41c-0.1,0.84-0.07,1.71-0.05,2.56c0.01,0.18,0.01,0.36,0.01,0.53c0.03-0.01,0.05-0.02,0.08-0.02
			c1.58-0.38,2.9,0.24,4.18,0.84c0.14,0.06,0.28,0.13,0.41,0.19c0.35,0.16,0.62,0.54,0.47,0.9c-0.09,0.22-0.24,0.31-0.35,0.35
			C130.33,32.06,130.26,32.07,130.19,32.07z M124.94,25.06c-0.19,0-0.35,0.06-0.44,0.16c-0.12,0.13-0.09,0.31-0.05,0.43
			c0.24,0.65,0.24,1.28,0.24,1.88c0,0.29,0,0.57,0.02,0.84l0,0.04l0,0.57c0,0.46,0,0.9,0,1.34c0,0,0,0.01,0,0.01
			c0.09-0.02,0.18-0.04,0.27-0.06c-0.05-0.09-0.07-0.2-0.07-0.33c0-0.23-0.01-0.45-0.02-0.68c-0.02-0.87-0.05-1.78,0.05-2.66
			c0.12-1.02,1.04-1.02,1.59-1.03c0.08,0,0.16,0,0.24,0c0.39-0.01,0.67,0.08,0.85,0.28c0.25,0.28,0.23,0.66,0.18,1.04
			c-0.06,0.41,0.04,0.58,0.71,0.78c2.52,0.73,5.19,1.1,7.94,1.12c0.42,0.01,0.82-0.1,1.25-0.2l0.07-0.02
			c0.23-0.06,0.29-0.13,0.32-0.39c0.03-0.32,0.07-0.64,0.12-0.96c0.06-0.43,0.11-0.87,0.15-1.3c0.02-0.26,0.04-0.59,0.02-0.7
			c-0.1-0.03-0.37-0.03-0.64-0.03c-0.32,0-0.62,0.01-0.91,0.01c-0.85,0.02-1.73,0.03-2.6-0.06c-0.26-0.03-0.51-0.05-0.77-0.08
			c-1.75-0.18-3.56-0.36-5.23-1.2c-0.04-0.02-0.07-0.03-0.09-0.04c0,0.03,0,0.07,0,0.12c0.01,0.44-0.1,0.79-0.34,1.01
			c-0.35,0.33-0.85,0.34-1.26,0.32l-0.19-0.01c-0.37-0.02-0.75-0.05-1.15-0.15C125.12,25.07,125.02,25.06,124.94,25.06z"/>
	</g>
	<g>
		<path class="st0" d="M123.82,51.56c-1.05,0-2.15-0.26-3.35-0.77c-1.17-0.51-2.23-1.24-3.15-2.19c-0.29-0.3-0.4-0.33-0.43-0.33
			c0,0,0,0,0,0c-0.04,0-0.14,0.05-0.43,0.35c-0.05,0.05-0.09,0.13-0.14,0.21c-0.04,0.08-0.09,0.16-0.14,0.23
			c-0.26,0.36-0.54,0.46-0.72,0.47c-0.16,0.01-0.41-0.02-0.65-0.27c-0.25-0.25-0.3-0.51-0.29-0.69c0.01-0.29,0.16-0.57,0.44-0.82
			c0.16-0.14,0.35-0.14,0.49-0.14c0.04,0,0.09,0,0.11-0.01c0.23-0.12,0.37-0.23,0.4-0.34c0.03-0.1-0.03-0.28-0.18-0.52
			c-0.78-1.28-1.31-2.56-1.62-3.92c-0.3-1.31-0.28-2.66,0.08-4.12c0.4-1.62,1.47-3.06,2.94-3.94c1.53-0.91,3.38-1.16,5.21-0.68
			c4.77,1.24,7.96,6.09,7.84,9.66c0.01,3.71-1.16,5.92-3.79,7.19C125.62,51.36,124.74,51.56,123.82,51.56z M121.12,50.3
			c1.91,0.75,3.51,0.76,5.02,0.03c2.36-1.13,3.4-3.16,3.39-6.56l0-0.01c0.12-3.3-2.99-7.83-7.31-8.96c-1.65-0.43-3.3-0.21-4.67,0.6
			c-1.31,0.78-2.27,2.06-2.62,3.5c-0.33,1.35-0.36,2.59-0.08,3.79c0.03,0.11,0.05,0.22,0.08,0.34c-0.21-1.05-0.25-2.14-0.09-3.22
			c0.25-1.61,1.1-3.05,2.36-3.95c1.22-0.88,2.72-1.2,4.33-0.93c3.27,0.55,5.66,2.58,7.12,6.04c0.44,1.03,0.86,2.22,0.69,3.19
			c-0.01,0.22-0.02,0.42-0.03,0.61c-0.03,0.67-0.06,1.2-0.22,1.75c-0.49,1.66-1.51,2.91-2.94,3.62
			C124.67,50.86,122.84,50.92,121.12,50.3z M120.44,35.53c-1.05,0-2.01,0.3-2.83,0.89c-1.1,0.8-1.86,2.07-2.07,3.49
			c-0.7,4.59,2.41,8.41,5.69,9.67c1.58,0.61,3.27,0.58,4.62-0.09c1.25-0.62,2.14-1.72,2.58-3.19c0.14-0.47,0.16-0.94,0.19-1.58
			c0.01-0.2,0.02-0.41,0.03-0.64l0-0.04c0.14-0.8-0.27-1.93-0.64-2.82c-1.36-3.22-3.58-5.11-6.59-5.62
			C121.08,35.56,120.76,35.53,120.44,35.53z M115.39,48.33c-0.1,0.1-0.17,0.2-0.17,0.28c0,0.02,0,0.08,0.09,0.17
			c0.05,0.05,0.08,0.06,0.1,0.06c0.03,0,0.11-0.05,0.21-0.18c0.04-0.05,0.07-0.11,0.1-0.17c0.04-0.08,0.09-0.16,0.15-0.24
			c-0.14,0.07-0.29,0.07-0.41,0.07c-0.01,0-0.03,0-0.04,0C115.41,48.32,115.4,48.32,115.39,48.33z M116.9,47.57
			c0.13,0,0.26,0.03,0.38,0.1c-0.24-0.27-0.47-0.55-0.68-0.85c0.07,0.2,0.11,0.43,0.04,0.66c-0.02,0.06-0.04,0.11-0.07,0.16
			C116.67,47.59,116.78,47.57,116.9,47.57C116.89,47.57,116.9,47.57,116.9,47.57z"/>
	</g>
	<g>
		<path class="st0" d="M148.63,55.8c-0.06,0-0.13-0.01-0.19-0.02c-0.66-0.13-1.08-0.6-1.01-1.14c0.12-1.07-0.23-2.03-0.61-3.04
			c-0.21-0.57-0.43-1.16-0.56-1.78c-0.08-0.38-0.19-0.76-0.32-1.14c0,0.25-0.04,0.51-0.23,0.7c-0.15,0.14-0.34,0.2-0.59,0.19
			c-0.75-0.05-0.74-0.76-0.74-1.06l0-0.07c0-0.3,0-0.6,0.01-0.9c0-0.27,0.01-0.55,0.01-0.82l0-0.11c0-0.29,0-0.58-0.01-0.87
			c-0.01-0.12-0.01-0.24-0.02-0.34c-0.08,0.03-0.17,0.07-0.25,0.11l-0.1,0.04c-0.54,0.25-1.04,0.56-1.57,0.9
			c-0.73,0.46-1.49,0.94-2.36,1.22l-0.22,0.07l-0.63-0.7l0.24-0.23c0.87-0.83,1.92-1.37,2.94-1.89c0.34-0.17,0.68-0.34,1.01-0.53
			c0.76-0.42,1.01-0.85,0.97-1.7c-0.05-1.1-0.04-2.22-0.03-3.3c0-0.48,0.01-0.97,0.01-1.45c0-0.76,0-1.31-0.14-1.44
			c-0.14-0.13-0.68-0.13-1.37-0.13c-1.03,0.01-2.04-0.17-3.06-0.53c-0.04-0.01-0.07-0.02-0.11-0.04c-0.2-0.06-0.48-0.15-0.62-0.4
			c-0.05-0.1-0.1-0.27-0.03-0.5c0.06-0.18,0.17-0.27,0.26-0.32c0.22-0.11,0.47-0.03,0.64,0.03c0.05,0.02,0.09,0.03,0.13,0.04
			c2.77,0.61,5.74,0.56,9.35-0.17l0.07-0.01c0.15-0.03,0.23-0.05,0.28-0.08l-0.13-0.12l0.93-0.77l-0.02,0.49
			c0.17-0.02,0.59-0.06,0.72,0.35c0.22,0.69-0.45,0.98-0.74,1.1l-0.04,0.02c-0.8,0.34-1.67,0.56-2.6,0.63
			c-0.98,0.08-1.57,0.13-1.77,0.34c-0.19,0.2-0.19,0.78-0.19,1.74c0,0.45,0.01,0.89,0.01,1.34c0.01,1.12,0.03,2.28-0.04,3.43
			c-0.04,0.71,0.16,1.03,0.8,1.28c0.46,0.18,0.89,0.42,1.3,0.66c0.77,0.43,1.49,0.84,2.37,0.87c0.53,0.01,0.9,0.45,0.91,1.06
			c0,0.4-0.21,0.75-0.56,0.9c-0.65,0.29-1.2,0.17-1.47-0.33c-0.38-0.67-1.03-0.96-1.72-1.26c-0.43-0.19-0.88-0.38-1.28-0.68
			l0.02,0.07c0.27,0.86,0.55,1.72,0.82,2.58c0.52,1.64,1.05,3.28,1.56,4.92c0.11,0.37,0.33,0.61,0.61,0.85
			c0.45,0.39,0.5,0.96,0.12,1.5C149.21,55.65,148.93,55.8,148.63,55.8z M148.09,53.44c0.06,0.41,0.08,0.84,0.03,1.28
			c-0.02,0.18,0.22,0.33,0.46,0.37c0.04,0.01,0.14,0.03,0.26-0.14c0.25-0.35,0.08-0.49,0-0.56
			C148.56,54.17,148.27,53.88,148.09,53.44z M145.11,48.86c0,0,0.02,0.01,0.05,0.01c0.06,0,0.07,0,0.07,0c0-0.03,0-0.22,0-0.32
			c-0.01-0.41,0.01-0.78,0.02-1.06c0.01-0.13,0.04-0.25,0.06-0.35c0.01-0.04,0.02-0.08,0.03-0.12l0.19-0.92L146,46.9
			c0,0.01,0.01,0.01,0.01,0.02c-0.13-0.4-0.25-0.8-0.38-1.19l-0.02-0.06c-0.06-0.18-0.18-0.52,0.08-0.81
			c0.07-0.08,0.17-0.16,0.32-0.2c-0.58-0.37-0.82-0.93-0.77-1.74c0.07-1.12,0.05-2.27,0.04-3.38c0-0.45-0.01-0.89-0.01-1.34
			c0-1.6,0.06-2.21,0.82-2.5c-0.58,0.05-1.14,0.08-1.69,0.09c0.14,0.05,0.25,0.12,0.35,0.21c0.34,0.34,0.35,0.88,0.35,1.94
			c0,0.49,0,0.97-0.01,1.46c-0.01,1.07-0.02,2.18,0.03,3.26c0.04,0.91-0.21,1.53-0.84,2.02c0.2-0.07,0.36-0.08,0.52,0.02
			c0.26,0.16,0.27,0.44,0.3,0.97c0.02,0.33,0.02,0.64,0.02,0.94l0,0.11c0,0.27,0,0.55-0.01,0.82c0,0.3-0.01,0.6-0.01,0.9l0,0.08
			C145.08,48.62,145.08,48.81,145.11,48.86C145.11,48.86,145.11,48.86,145.11,48.86z M149.19,46.24c0.26,0.21,0.5,0.47,0.69,0.81
			c0.03,0.06,0.13,0.23,0.58,0.03c0.13-0.06,0.15-0.2,0.14-0.26c0-0.04-0.01-0.36-0.23-0.37C149.95,46.45,149.56,46.37,149.19,46.24
			z M141.78,46.04c-0.28,0.15-0.55,0.31-0.81,0.48C141.24,46.38,141.51,46.21,141.78,46.04z M150.44,34.73
			c-0.01,0.01-0.01,0.02-0.02,0.03c0.02-0.01,0.04-0.02,0.07-0.03C150.47,34.73,150.45,34.73,150.44,34.73z"/>
	</g>
	<g>
		<path class="st0" d="M147.31,36.23l1.77-1.46c-0.33,0.04-0.65,0.1-0.97,0.14c-0.97,0.15-1.98,0.31-3,0.31
			c-1.46,0.01-2.97,0.01-4.48-0.24c-0.8-0.14-1.47-0.61-1.84-1.3c-0.35-0.66-0.37-1.44-0.06-2.13c0.25-0.55,0.74-0.39,0.9-0.33
			c0.03,0.01,0.06,0.02,0.09,0.03c1.45,0.36,2.92,0.4,4.17,0.39c1.9-0.02,4.13-0.12,6.27-0.75c0.24-0.07,0.6-0.14,0.87,0.06
			c0.3,0.22,0.32,0.62,0.32,0.75c0.01,0.14,0.02,0.28,0.03,0.42c0.04,0.56,0.09,1.21-0.23,1.76l0.12-0.01l-0.26,0.21
			c-0.16,0.2-0.37,0.38-0.67,0.54L147.31,36.23z M139.35,31.86c-0.22,0.51-0.19,1.03,0.05,1.49c0.27,0.5,0.75,0.84,1.34,0.94
			c1.45,0.24,2.93,0.24,4.36,0.23c0.97,0,1.95-0.16,2.9-0.3c0.69-0.11,1.4-0.22,2.11-0.27c0.64-0.38,0.63-0.93,0.57-1.79
			c-0.01-0.15-0.02-0.3-0.03-0.45c-0.01-0.15-0.03-0.2-0.04-0.22c0,0.01-0.08,0-0.26,0.05c-2.22,0.66-4.51,0.76-6.46,0.78
			c-1.29,0.01-2.82-0.03-4.35-0.41c-0.05-0.01-0.1-0.03-0.15-0.04C139.39,31.87,139.37,31.87,139.35,31.86z"/>
	</g>
	<g>
		<path class="st0" d="M136.85,45.9c-0.27,0-0.53-0.12-0.71-0.34c-0.38-0.49-0.74-0.85-1.13-1.13c-0.43-0.31-0.31-0.71-0.25-0.92
			l0.02-0.08c1.01-3.91-0.13-7.25-3.61-10.51c-0.09-0.09-0.2-0.17-0.3-0.25c-0.12-0.09-0.24-0.19-0.36-0.3
			c-0.15-0.14-0.23-0.32-0.22-0.49c0.01-0.15,0.09-0.29,0.22-0.39c0.16-0.12,0.42-0.18,0.63-0.08c0.21,0.11,0.43,0.24,0.65,0.4
			c2.12,1.55,3.55,3.77,4.38,6.78c0.04,0.13,0.05,0.26,0.06,0.37c0,0.04,0.01,0.08,0.01,0.12c0.07-0.13,0.15-0.26,0.22-0.39
			c0.29-0.5,0.56-0.97,0.61-1.37c-0.12-0.57-0.08-0.95,0.11-1.24c0.15-0.23,0.4-0.38,0.75-0.45c0.73-0.14,1.09,0.16,1.26,0.45
			c0.31,0.52,0.23,1.09-0.23,1.48c-1.67,1.43-2.2,3.42-2.75,5.53c-0.07,0.25-0.06,0.42,0.02,0.55c0.1,0.17,0.35,0.3,0.76,0.4
			c0.61,0.15,0.91,0.57,0.79,1.11c-0.08,0.35-0.36,0.63-0.71,0.71C136.98,45.89,136.91,45.9,136.85,45.9z M136.15,44.49
			c0.18,0.19,0.36,0.4,0.55,0.63c0.06,0.08,0.15,0.08,0.21,0.07c0.07-0.02,0.16-0.07,0.18-0.18c0.02-0.1,0.04-0.21-0.27-0.28
			C136.61,44.68,136.37,44.61,136.15,44.49z M135.4,43.84c0,0,0.01,0.01,0.02,0.02c0.07,0.05,0.13,0.1,0.2,0.15
			c-0.08-0.13-0.13-0.28-0.15-0.43c0,0.01-0.01,0.02-0.01,0.03l-0.03,0.09C135.42,43.75,135.4,43.81,135.4,43.84z M135.77,39.8
			c0.08,0.74,0.07,1.5-0.02,2.27c0.19-0.7,0.41-1.41,0.69-2.08c-0.09,0.05-0.18,0.06-0.25,0.06
			C136.07,40.04,135.91,39.98,135.77,39.8z M138.27,36.31c-0.06,0-0.13,0.01-0.22,0.02c-0.23,0.04-0.28,0.12-0.29,0.15
			c-0.06,0.08-0.1,0.29,0.01,0.77l0.01,0.05l-0.01,0.05c-0.02,0.19-0.07,0.38-0.14,0.57c0.25-0.31,0.54-0.61,0.86-0.88
			c0.2-0.17,0.22-0.36,0.09-0.59C138.55,36.4,138.49,36.31,138.27,36.31z"/>
	</g>
	<g>
		<path class="st0" d="M143.88,31.85c-0.91,0-1.75-0.04-2.56-0.11c-0.53-0.05-1.02-0.14-1.47-0.28l-0.1-0.03
			c-0.38-0.11-1.03-0.31-1.03-1.07c0-0.64,0.5-0.88,0.84-1.03l0.11-0.05c0.9-0.44,1.88-0.56,2.89-0.65c2.27-0.2,4.68-0.36,7.06,0.12
			l0.07,0.01c0.4,0.08,0.86,0.17,1.16,0.52c0.37,0.43,0.35,0.75,0.26,0.94c-0.07,0.15-0.23,0.33-0.58,0.4
			c-0.08,0.23-0.28,0.45-0.74,0.57c-0.17,0.04-0.34,0.09-0.5,0.13c-0.62,0.16-1.26,0.34-1.91,0.39
			C146.09,31.8,144.95,31.85,143.88,31.85z M140.55,30.27c2.79,0.47,5.64,0.4,8.46-0.22l0.14-0.03c0.06-0.01,0.11-0.03,0.17-0.04
			c-1.98-0.34-4.09-0.35-6.82-0.05l-0.23,0.02C141.7,30.02,141.1,30.08,140.55,30.27z M139.46,30.2c-0.03,0.04-0.04,0.09-0.04,0.15
			c0,0.07,0.01,0.12,0.04,0.16c-0.01-0.06-0.02-0.13-0.01-0.21C139.45,30.27,139.45,30.24,139.46,30.2z"/>
	</g>
	<g>
		<path class="st0" d="M135.22,24.63c-1.75,0-3.61-0.3-5.8-0.93c-0.28-0.08-0.56-0.18-0.84-0.29c-0.27-0.1-0.9-0.35-0.85-1.04
			c0.04-0.55,0.42-0.88,1.13-0.97c0.97-0.12,2.04-0.13,3.36-0.01c1.96,0.17,3.69,0.46,5.27,0.87c0.18,0.05,0.35,0.11,0.52,0.17
			c0.1,0.04,0.21,0.08,0.31,0.11c0.69,0.22,1.06,0.72,0.97,1.31c-0.11,0.72-0.83,0.73-1.18,0.74l-0.1,0
			c-0.55,0.02-1.1,0.01-1.64,0.01c-0.22,0-0.44,0-0.66,0C135.54,24.62,135.38,24.63,135.22,24.63z M138.17,23.25
			c0.06,0.09,0.1,0.19,0.09,0.33c-0.01,0.15-0.07,0.25-0.13,0.32c0.4-0.01,0.44-0.05,0.46-0.15
			C138.63,23.49,138.4,23.34,138.17,23.25z M135.49,23.38l0.5,0c0.13,0,0.26,0,0.39,0c-2.14-0.5-4.17-0.74-6.16-0.74
			C131.98,23.13,133.75,23.37,135.49,23.38L135.49,23.38z M128.63,22.17c-0.2,0.07-0.2,0.17-0.21,0.25
			c-0.01,0.08,0.01,0.15,0.2,0.24c-0.06-0.09-0.09-0.19-0.06-0.3C128.58,22.29,128.6,22.23,128.63,22.17z"/>
	</g>
	<g>
		<path class="st0" d="M143.35,24.52c-0.03,0-0.05,0-0.08,0c-0.59-0.06-0.59-0.61-0.59-0.8c0-0.03,0-0.06,0-0.09l-0.06-1.15
			c-0.06-1.03-0.12-2.1-0.15-3.15c-0.04-1.19-0.07-1.29-1.28-1.65c-0.35-0.1-0.79-0.23-1.15-0.53c-0.22-0.18-0.29-0.61-0.13-0.85
			c0.13-0.2,0.28-0.3,0.46-0.29c0.15,0.01,0.25,0.1,0.32,0.18c0.5-0.09,0.86,0.2,1.11,0.4c0.15,0.12,0.29,0.24,0.42,0.26
			c0.08,0.01,0.16,0.04,0.25,0.07c0.06,0.02,0.14,0.04,0.17,0.04c-0.01-0.01-0.04-0.08-0.09-0.2c-0.04-0.07-0.09-0.16-0.09-0.27
			c0-0.08-0.02-0.16-0.03-0.23c-0.05-0.3-0.12-0.75,0.31-1.1c0.13-0.11,0.31-0.11,0.4-0.1c0.11,0.01,0.25,0.05,0.35,0.17
			c0.16,0.19,0.58,0.71,0.29,1.39c-0.11,0.26-0.13,0.46-0.07,0.62c0.08,0.2,0.31,0.37,0.73,0.54c0.7,0.29,1.4,0.62,2.08,0.93
			c0.44,0.2,0.88,0.4,1.32,0.6l0.05,0.02c0.22,0.09,0.49,0.21,0.6,0.49c0.06,0.17,0.05,0.35-0.04,0.54
			c-0.11,0.24-0.27,0.33-0.39,0.37c-0.29,0.1-0.57-0.03-0.78-0.14l-0.05-0.02c-0.61-0.3-1.22-0.6-1.83-0.9
			c-0.42-0.21-0.83-0.41-1.25-0.62c-0.11-0.05-0.18-0.08-0.23-0.1c-0.01,0.05-0.01,0.13-0.02,0.26c-0.01,0.49-0.01,0.99-0.01,1.48
			c0,0.1,0,0.2,0,0.3l0.1,0l0,0.98c0,0.55,0,1.12-0.01,1.68l0,0.07c0,0.16,0.01,0.44-0.19,0.62
			C143.69,24.44,143.56,24.52,143.35,24.52z M147.31,19.86c0.07,0.03,0.13,0.06,0.2,0.1l0.05,0.02c0.06,0.03,0.16,0.08,0.22,0.09
			c-0.05-0.03-0.14-0.07-0.2-0.1l-0.05-0.02C147.46,19.93,147.38,19.9,147.31,19.86z M147.79,20.04L147.79,20.04z M142.72,17.67
			c0.32,0.33,0.41,0.81,0.44,1.64c0,0.09,0.01,0.19,0.01,0.28c0-0.13,0-0.25,0.01-0.38c0.01-0.35,0.04-0.71,0.33-0.88
			c0.08-0.05,0.16-0.07,0.24-0.08c-0.28-0.16-0.56-0.39-0.7-0.72c-0.01,0.01-0.02,0.01-0.03,0.02
			C142.92,17.62,142.82,17.66,142.72,17.67z M143.08,15.89c0,0.06,0.01,0.15,0.03,0.27c0.01,0.05,0.02,0.1,0.02,0.15
			C143.17,16.17,143.16,16.05,143.08,15.89z M140.4,16.29C140.4,16.29,140.4,16.29,140.4,16.29C140.4,16.29,140.4,16.29,140.4,16.29
			z M142.92,15.68C142.92,15.68,142.92,15.68,142.92,15.68C142.92,15.68,142.92,15.68,142.92,15.68z"/>
	</g>
	<g>
		<path class="st0" d="M136.69,30.65c-0.18,0-0.35-0.01-0.5-0.02c-0.26-0.01-0.5-0.03-0.69,0l-0.05,0c-2.48,0.02-4.6-0.42-6.52-0.9
			c-0.2-0.05-0.39-0.12-0.57-0.18c-0.09-0.03-0.18-0.06-0.27-0.09c-0.3-0.1-0.49-0.24-0.59-0.43c-0.08-0.15-0.09-0.32-0.03-0.5
			c0.05-0.14,0.14-0.25,0.28-0.31c0.27-0.13,0.6-0.03,0.69,0.01c0.86,0.32,1.76,0.49,2.84,0.65c0.24,0.03,0.47,0.07,0.71,0.1
			c1.82,0.27,3.7,0.55,5.55,0.21l0.06-0.01c0.43-0.09,0.7,0.04,0.8,0.4c0.07,0.27-0.02,0.64-0.5,0.85
			C137.51,30.61,137.08,30.65,136.69,30.65z"/>
	</g>
	<g>
		<path class="st0" d="M137.24,49.84c-0.2,0-0.4-0.06-0.58-0.18c-0.45-0.29-0.63-0.65-0.52-1.07c0.15-0.59,0.44-0.89,0.87-0.86
			c0.54,0.03,0.99-0.23,1.48-0.5c0.36-0.2,0.73-0.41,1.16-0.52l0.2-0.05l0.61,0.68l-0.23,0.23c-0.32,0.33-0.7,0.55-1.07,0.77
			c-0.5,0.3-0.97,0.58-1.24,1.09c-0.09,0.18-0.26,0.31-0.46,0.36C137.39,49.83,137.31,49.84,137.24,49.84z M136.97,48.43
			c-0.02,0-0.08,0.04-0.15,0.34c-0.02,0.06-0.04,0.14,0.22,0.31c0.13,0.08,0.24,0.07,0.26,0.05c0.2-0.39,0.48-0.68,0.78-0.91
			C137.75,48.36,137.38,48.45,136.97,48.43z"/>
	</g>
	<g>
		<path class="st0" d="M132.19,54.19c-0.04,0-0.08,0-0.12-0.01c-0.82-0.07-0.88-0.7-0.91-1.04c-0.01-0.11-0.02-0.21-0.04-0.28
			c-0.01-0.02-0.04-0.07-0.06-0.11c-0.09-0.15-0.33-0.55,0.04-0.89c0.36-0.33,0.73-0.07,0.86,0.02c0.03,0.02,0.08,0.06,0.1,0.06
			c0.07,0.03,0.14,0.04,0.22,0.06c0.17,0.04,0.35,0.08,0.52,0.2c0.47,0.32,0.63,0.82,0.42,1.3
			C133.02,53.94,132.65,54.19,132.19,54.19z M131.76,52.57c0.01,0.02,0.02,0.04,0.03,0.07c0.05,0.15,0.06,0.3,0.08,0.43
			c0.04,0.37,0.05,0.39,0.27,0.41l0,0c0.22,0.02,0.35-0.06,0.44-0.28c0.03-0.07,0.11-0.24-0.17-0.43c-0.06-0.04-0.18-0.07-0.29-0.1
			c-0.1-0.02-0.2-0.05-0.3-0.08C131.8,52.59,131.78,52.58,131.76,52.57z"/>
	</g>
	<g>
		<path class="st0" d="M131.02,52.24c-0.12,0-0.23-0.04-0.33-0.12c-0.81-0.66-1.49-1.44-2.02-2.31c-0.15-0.25,0.01-0.53,0.11-0.72
			l0.09-0.16l0.2-0.03c0.09-0.01,0.37,0,0.52,0.18c0.6,0.68,1.2,1.38,1.85,2.14c0.1,0.12,0.12,0.26,0.13,0.35
			c0,0.02,0,0.03,0.01,0.05l0.03,0.12l-0.06,0.11c-0.09,0.18-0.25,0.32-0.43,0.36C131.1,52.24,131.06,52.24,131.02,52.24z"/>
	</g>
	<g>
		<path class="st0" d="M127.41,28.84c-0.01,0-0.03,0-0.04,0c-0.18-0.02-0.27-0.15-0.31-0.2l-0.25-0.28l0.3-0.23
			c0.05-0.05,0.17-0.16,0.35-0.14c0.18,0.02,0.27,0.16,0.31,0.21l0.25,0.29l-0.3,0.22C127.67,28.74,127.56,28.84,127.41,28.84z
			 M127.26,28.63c0.03,0.02,0.07,0.04,0.13,0.04c0.05,0.01,0.1,0,0.14-0.01l-0.12-0.15L127.26,28.63z M127.31,28.15l0.11,0.15
			l0.14-0.13c-0.03-0.02-0.07-0.03-0.12-0.04C127.39,28.13,127.35,28.14,127.31,28.15z"/>
	</g>
</g>
<g>
	<g>
		<g>
			<path d="M204.31,21.91l-29.57,29.57c-2.12,2.12-5.58,2.12-7.7,0l-2-2c-2.12-2.12-2.12-5.58,0-7.7l29.57-29.57
				c2.12-2.12,5.58-2.12,7.7,0l2,2C206.43,16.33,206.43,19.79,204.31,21.91z"/>
		</g>
		<g>
			<path class="st0" d="M207.78,18.59l-36.35,36.35c-0.3,0.3-0.78,0.3-1.07,0l-8.78-8.78c-0.3-0.3-0.3-0.78,0-1.07l36.35-36.35
				c0.3-0.3,0.78-0.3,1.07,0l8.78,8.78C208.07,17.82,208.07,18.3,207.78,18.59z M161.72,45.25c-0.21,0.21-0.21,0.56,0,0.77
				l8.78,8.78c0.21,0.21,0.56,0.21,0.77,0l36.35-36.35c0.21-0.21,0.21-0.56,0-0.77l-8.78-8.78c-0.21-0.21-0.56-0.21-0.77,0
				L161.72,45.25z"/>
		</g>
	</g>
	<g>
		<g>
			<path class="st0" d="M204.49,20.12L173.11,51.5c-0.95,0.95-2.49,0.95-3.44,0l-0.89-0.89c-0.95-0.95-0.95-2.49,0-3.44l31.38-31.38
				c0.95-0.95,2.49-0.95,3.44,0l0.89,0.89C205.43,17.63,205.43,19.18,204.49,20.12z"/>
		</g>
	</g>
	<g>
		<g>
			<path class="st0" d="M194.09,21.01l-19.94,19.94c-0.3,0.3-0.78,0.3-1.07,0l-1.69-1.69c-0.3-0.3-0.3-0.78,0-1.07l19.94-19.94
				c0.3-0.3,0.78-0.3,1.07,0l1.69,1.69C194.38,20.23,194.38,20.71,194.09,21.01z M171.54,38.34c-0.21,0.21-0.21,0.56,0,0.77
				l1.69,1.69c0.21,0.21,0.56,0.21,0.77,0l19.94-19.94c0.21-0.21,0.21-0.56,0-0.77l-1.69-1.69c-0.21-0.21-0.56-0.21-0.77,0
				L171.54,38.34z"/>
		</g>
	</g>
	<g>
		<g>
			<path class="st0" d="M170.66,41.22l-4.41,4.41c-0.3,0.3-0.78,0.3-1.07,0l-1.46-1.46c-0.3-0.3-0.3-0.78,0-1.07l4.41-4.41
				c0.3-0.3,0.78-0.3,1.07,0l1.46,1.46C170.95,40.44,170.95,40.92,170.66,41.22z M163.87,43.25c-0.21,0.21-0.21,0.56,0,0.77
				l1.46,1.46c0.21,0.21,0.56,0.21,0.77,0l4.41-4.41c0.21-0.21,0.21-0.56,0-0.77l-1.46-1.46c-0.21-0.21-0.56-0.21-0.77,0
				L163.87,43.25z"/>
		</g>
	</g>
	<g>
		<g>
			<path class="st0" d="M198.73,13.15l-4.41,4.41c-0.3,0.3-0.78,0.3-1.07,0l-1.46-1.46c-0.3-0.3-0.3-0.78,0-1.07l4.41-4.41
				c0.3-0.3,0.78-0.3,1.07,0l1.46,1.46C199.02,12.37,199.02,12.85,198.73,13.15z M191.94,15.18c-0.21,0.21-0.21,0.56,0,0.77
				l1.46,1.46c0.21,0.21,0.56,0.21,0.77,0l4.41-4.41c0.21-0.21,0.21-0.56,0-0.77l-1.46-1.46c-0.21-0.21-0.56-0.21-0.77,0
				L191.94,15.18z"/>
		</g>
	</g>
	<g>
		<g>
			<path d="M172.87,49.75l-0.17,0.17c-0.18,0.18-0.46,0.18-0.64,0l-3-3c-0.18-0.18-0.18-0.46,0-0.64l0.17-0.17
				c0.18-0.18,0.46-0.18,0.64,0l3,3C173.04,49.28,173.04,49.57,172.87,49.75z"/>
		</g>
	</g>
	<g>
		<g>
			<path d="M174.67,47.94l-0.17,0.17c-0.18,0.18-0.46,0.18-0.64,0l-3-3c-0.18-0.18-0.18-0.46,0-0.64l0.17-0.17
				c0.18-0.18,0.46-0.18,0.64,0l3,3C174.85,47.48,174.85,47.77,174.67,47.94z"/>
		</g>
	</g>
	<g>
		<g>
			<path d="M182.46,40.16l-0.17,0.17c-0.18,0.18-0.46,0.18-0.64,0l-3-3c-0.18-0.18-0.18-0.46,0-0.64l0.17-0.17
				c0.18-0.18,0.46-0.18,0.64,0l3,3C182.63,39.7,182.63,39.98,182.46,40.16z"/>
		</g>
	</g>
	<g>
		<g>
			<path d="M184.14,38.47l-0.17,0.17c-0.18,0.18-0.46,0.18-0.64,0l-3-3c-0.18-0.18-0.18-0.46,0-0.64l0.17-0.17
				c0.18-0.18,0.46-0.18,0.64,0l3,3C184.32,38.01,184.32,38.3,184.14,38.47z"/>
		</g>
	</g>
	<g>
		<g>
			<path d="M191.39,31.22l-0.17,0.17c-0.18,0.18-0.46,0.18-0.64,0l-3-3c-0.18-0.18-0.18-0.46,0-0.64l0.17-0.17
				c0.18-0.18,0.46-0.18,0.64,0l3,3C191.57,30.76,191.57,31.05,191.39,31.22z"/>
		</g>
	</g>
	<g>
		<g>
			<path d="M193.15,29.46l-0.17,0.17c-0.18,0.18-0.46,0.18-0.64,0l-3-3c-0.18-0.18-0.18-0.46,0-0.64l0.17-0.17
				c0.18-0.18,0.46-0.18,0.64,0l3,3C193.33,29,193.33,29.28,193.15,29.46z"/>
		</g>
	</g>
	<g>
		<g>
			<path d="M200.79,21.83L200.62,22c-0.18,0.18-0.46,0.18-0.64,0l-3-3c-0.18-0.18-0.18-0.46,0-0.64l0.17-0.17
				c0.18-0.18,0.46-0.18,0.64,0l3,3C200.96,21.37,200.96,21.65,200.79,21.83z"/>
		</g>
	</g>
	<g>
		<g>
			<path d="M202.55,20.07l-0.17,0.17c-0.18,0.18-0.46,0.18-0.64,0l-3-3c-0.18-0.18-0.18-0.46,0-0.64l0.17-0.17
				c0.18-0.18,0.46-0.18,0.64,0l3,3C202.73,19.6,202.73,19.89,202.55,20.07z"/>
		</g>
	</g>
</g>
</svg>
