<?xml version="1.0" encoding="utf-8"?>
<!-- Generator: Adobe Illustrator 23.0.6, SVG Export Plug-In . SVG Version: 6.00 Build 0)  -->
<svg version="1.1" id="Layer_1" xmlns="http://www.w3.org/2000/svg" xmlns:xlink="http://www.w3.org/1999/xlink" x="0px" y="0px"
	 viewBox="0 0 119 33" style="enable-background:new 0 0 119 33;" xml:space="preserve">
<style type="text/css">
	.st0{fill:url(#SVGID_1_);}
</style>
<linearGradient id="SVGID_1_" gradientUnits="userSpaceOnUse" x1="5.3411" y1="16.2765" x2="114.6589" y2="16.2765">
	<stop  offset="0" style="stop-color:#E9A222"/>
	<stop  offset="0.3849" style="stop-color:#D24252"/>
	<stop  offset="1" style="stop-color:#9E005D"/>
</linearGradient>
<path class="st0" d="M6.47,27.55c-0.78,0-1.13-0.34-1.13-1.13V6.13C5.34,5.34,5.69,5,6.47,5h5.04c0.66,0,1.06,0.25,1.44,0.94
	l2.82,5.11c0.22,0.38,0.31,0.53,0.56,0.53h0.28c0.25,0,0.34-0.16,0.56-0.53l2.79-5.11C20.35,5.25,20.75,5,21.41,5h5.07
	c0.78,0,1.13,0.34,1.13,1.13v20.3c0,0.78-0.34,1.13-1.13,1.13h-4.82c-0.81,0-1.13-0.34-1.13-1.13V15.4l-1.85,3.41
	c-0.38,0.72-0.85,1-1.66,1h-1.25c-0.81,0-1.28-0.28-1.66-1l-1.85-3.41v11.03c0,0.78-0.34,1.13-1.13,1.13H6.47z M33.06,27.55
	c-0.78,0-1.13-0.34-1.13-1.13V6.13c0-0.78,0.34-1.13,1.13-1.13H47.6c0.78,0,1.13,0.34,1.13,1.13v3.66c0,0.78-0.34,1.13-1.13,1.13
	h-8.65v2.41h6.11c0.78,0,1.13,0.34,1.13,1.13v3.35c0,0.78-0.34,1.13-1.13,1.13h-6.11v2.69h8.65c0.78,0,1.13,0.34,1.13,1.13v3.66
	c0,0.78-0.34,1.13-1.13,1.13H33.06z M53.55,27.55c-0.78,0-1.13-0.34-1.13-1.13V6.13c0-0.78,0.34-1.13,1.13-1.13h10.43
	c4.7,0,6.17,2.13,6.17,5.23v1.44c0,1.75-0.44,3.01-1.75,3.57c2.29,0.25,3.79,1.91,3.79,4.54v6.64c0,0.78-0.34,1.13-1.13,1.13H66.2
	c-0.78,0-1.13-0.34-1.13-1.13v-4.79c0-0.94-0.31-1.35-1.19-1.35H59.5v6.14c0,0.78-0.34,1.13-1.13,1.13H53.55z M59.5,14.65h2.35
	c1.1,0,1.38-0.63,1.38-1.47v-1.06c0-0.85-0.28-1.47-1.38-1.47H59.5V14.65z M82.9,27.55c-5.26,0-7.71-2.04-7.71-6.39v-9.74
	C75.19,7.04,77.64,5,82.9,5h7.64c0.78,0,1.13,0.34,1.13,1.13v3.79c0,0.78-0.34,1.13-1.13,1.13h-6.3c-1.32,0-1.91,0.5-1.91,1.57v7.46
	c0,1.03,0.6,1.5,1.91,1.5h6.3c0.78,0,1.13,0.34,1.13,1.13v3.73c0,0.78-0.34,1.13-1.13,1.13H82.9z M96.33,27.55
	c-0.78,0-1.13-0.34-1.13-1.13V6.13c0-0.78,0.34-1.13,1.13-1.13h4.86c0.78,0,1.13,0.34,1.13,1.13v6.8h5.23v-6.8
	c0-0.78,0.34-1.13,1.13-1.13h4.86c0.78,0,1.13,0.34,1.13,1.13v20.3c0,0.78-0.34,1.13-1.13,1.13h-4.86c-0.78,0-1.13-0.34-1.13-1.13
	v-6.95h-5.23v6.95c0,0.78-0.34,1.13-1.13,1.13H96.33z"/>
</svg>
