<?xml version="1.0" encoding="utf-8"?>
<!-- Generator: Adobe Illustrator 23.0.6, SVG Export Plug-In . SVG Version: 6.00 Build 0)  -->
<svg version="1.1" id="Layer_1" xmlns="http://www.w3.org/2000/svg" xmlns:xlink="http://www.w3.org/1999/xlink" x="0px" y="0px"
	 viewBox="0 0 300 100" style="enable-background:new 0 0 300 100;" xml:space="preserve">
<style type="text/css">
	.st0{fill:#FFFFFF;}
</style>
<g>
	<path class="st0" d="M178.1,39.42c-3.43,0-6.86,0-10.29,0c-0.33,0-0.56,0.12-0.77,0.37c-0.48,0.55-0.6,1.27-0.94,1.9
		c-0.18,0.33-0.47,0.61-0.52,1c-0.05,0.41-0.23,0.79-0.48,1.08c-0.5,0.58-0.6,1.35-0.99,1.98c-0.47,0.75-0.57,1.66-0.98,2.45
		c-0.45,0.87-0.73,1.83-1.23,2.69c-0.22,0.38-0.39,0.77-0.49,1.19c-0.04,0.15-0.14,0.27-0.29,0.32c-0.09,0.03-0.19-0.04-0.2-0.11
		c-0.02-0.5-0.41-0.82-0.59-1.24c-0.4-0.93-0.8-1.85-1.23-2.76c-0.23-0.49-0.52-0.96-0.75-1.43c-0.42-0.86-0.58-1.84-1.03-2.72
		c-0.51-1.02-0.88-2.1-1.47-3.09c-0.18-0.3-0.43-0.58-0.5-0.9c-0.13-0.61-0.53-0.69-1.03-0.69c-3.41,0-6.82,0-10.24,0
		c-0.72,0-0.87,0.15-0.87,0.88c0,3.23,0,6.46,0,9.69c0,3.28,0,6.56,0,9.84c0,0.63,0.11,0.74,0.71,0.74c1.76,0,3.53,0.01,5.29,0
		c0.71,0,0.87-0.17,0.87-0.89c-0.01-3.13-0.01-6.25-0.09-9.38c-0.04-1.36-0.18-2.72-0.12-4.08c0-0.11-0.03-0.23-0.05-0.34
		c-0.05-0.23-0.12-0.5,0.2-0.57c0.29-0.06,0.63-0.09,0.76,0.28c0.26,0.74,0.57,1.44,0.96,2.14c0.54,0.98,1.01,2.01,1.51,3.02
		c0.17,0.35,0.44,0.67,0.54,1.04c0.25,0.91,0.94,1.56,1.3,2.4c0.22,0.5,0.5,0.99,0.75,1.49c0.25,0.5,0.53,0.99,0.77,1.49
		c0.27,0.58,0.62,1.14,0.81,1.74c0.14,0.45,0.38,0.84,0.55,1.26c0.11,0.28,0.39,0.41,0.74,0.41c1.55-0.02,3.1-0.01,4.64,0
		c0.36,0,0.56-0.16,0.73-0.47c0.17-0.3,0.25-0.65,0.45-0.93c0.57-0.78,0.92-1.67,1.34-2.52c0.4-0.82,0.76-1.69,1.22-2.47
		c0.8-1.36,1.5-2.76,2.25-4.15c0.22-0.4,0.46-0.8,0.61-1.25c0.22-0.66,0.48-1.29,0.81-1.9c0.24-0.45,0.55-0.86,0.75-1.33
		c0.09-0.2,0.19-0.43,0.47-0.35c0.24,0.07,0.29,0.28,0.29,0.52c0,0.52-0.08,1.03-0.08,1.54c-0.02,4.21-0.01,8.42-0.03,12.63
		c0,0.46,0.16,0.66,0.64,0.66c1.8-0.01,3.6,0,5.39-0.01c0.68,0,0.84-0.18,0.84-0.87c0-6.44,0-12.88,0-19.32
		C179.06,39.68,178.81,39.42,178.1,39.42z"/>
	<path class="st0" d="M99.37,41.43c0-0.44,0.07-0.88,0.02-1.33c-0.06-0.47-0.25-0.69-0.73-0.68c-0.67,0.01-1.33,0-2,0
		c-2.73,0-5.46,0-8.19,0c-0.44,0-0.92,0.07-1.04,0.5c-0.15,0.53-0.49,0.93-0.73,1.39c-0.5,0.92-0.87,1.89-1.33,2.83
		c-0.32,0.66-0.7,1.3-0.93,1.99c-0.23,0.69-0.76,1.23-0.9,1.96c-0.08,0.42-0.2,0.85-0.41,1.22c-0.54,0.98-0.92,2.03-1.35,3.06
		c-0.03,0.08-0.06,0.16-0.15,0.18c-0.11,0.02-0.12-0.08-0.16-0.15c-0.49-1.11-0.99-2.23-1.49-3.34c-0.23-0.51-0.43-1.04-0.72-1.51
		c-0.59-0.95-1.16-1.9-1.36-3.02c-0.04-0.2-0.05-0.42-0.15-0.57c-0.53-0.8-0.75-1.75-1.24-2.58c-0.2-0.33-0.45-0.64-0.58-1.01
		c-0.26-0.72-0.47-0.86-1.21-0.86c-3.36,0-6.72,0-10.09,0c-0.67,0-0.83,0.16-0.84,0.81c0,6.47,0,12.95,0,19.42
		c0,0.65,0.18,0.83,0.82,0.83c1.68,0,3.36,0,5.04,0c0.56,0,0.75-0.18,0.74-0.75c-0.02-1.21-0.04-2.43-0.06-3.64
		c-0.06-3.48-0.03-6.96-0.03-10.43c0-0.22-0.07-0.5,0.28-0.54c0.32-0.03,0.37,0.23,0.43,0.45c0.14,0.49,0.46,0.89,0.69,1.33
		c0.27,0.5,0.59,0.99,0.85,1.49c0.45,0.87,0.86,1.77,1.33,2.63c0.22,0.4,0.51,0.78,0.66,1.2c0.32,0.88,0.96,1.57,1.34,2.42
		c0.37,0.81,0.83,1.6,1.2,2.42c0.39,0.86,0.59,1.81,1.14,2.6c0.23,0.33,0.36,0.82,0.91,0.82c1.55,0,3.1,0,4.64,0
		c0.39,0,0.67-0.18,0.8-0.56c0.29-0.8,0.98-1.36,1.17-2.25c0.08-0.4,0.35-0.87,0.65-1.25c0.2-0.24,0.29-0.55,0.21-0.88
		c0,0,0.01-0.01,0.01-0.01c0.41-0.08,0.51-0.33,0.38-0.71c0-0.03,0.01-0.05,0.03-0.06c0.38-0.15,0.57-0.41,0.44-0.84
		c0.01-0.04,0.02-0.08,0.04-0.13c0.17-0.03,0.18-0.12,0.1-0.25c0,0,0.01-0.02,0.01-0.02c0.28,0.01,0.38-0.11,0.29-0.38
		c0,0,0.01-0.01,0.01-0.01c0.51-0.28,0.72-0.72,0.69-1.29c0,0,0.01-0.01,0.01-0.01c0.2,0.07,0.29-0.08,0.34-0.2
		c0.18-0.43,0.38-0.84,0.6-1.25c0.06-0.11,0.19-0.3,0.02-0.46c-0.01-0.03,0.01-0.06,0.03-0.08c0.38-0.02,0.42-0.32,0.45-0.59
		c0.05-0.41,0.14-0.8,0.39-1.15c0.14-0.19,0.25-0.43,0.13-0.68c0.04-0.07,0.08-0.13,0.12-0.2c0.25,0.13,0.28-0.07,0.38-0.22
		c0.38-0.53,0.48-1.22,0.97-1.69c0.16-0.15,0.32-0.26,0.53-0.19c0.25,0.08,0.29,0.29,0.28,0.53c-0.03,0.73-0.07,1.46-0.08,2.19
		c-0.02,1.88,0,3.76-0.03,5.64c-0.04,2.11-0.12,4.21-0.18,6.32c-0.01,0.42,0.2,0.66,0.63,0.66c1.88,0,3.76,0,5.64,0
		c0.32,0,0.44-0.17,0.52-0.48c0.13-0.49-0.02-0.96-0.02-1.43C99.37,52.92,99.37,47.17,99.37,41.43z"/>
	<path class="st0" d="M124.01,55.09c-4.94,0-9.89,0-14.83,0c-0.23,0-0.48-0.04-0.7,0.02c-0.38,0.1-0.44-0.08-0.44-0.38
		c0-0.58,0.03-1.17-0.01-1.75c-0.02-0.43,0.14-0.52,0.54-0.52c4.78,0.01,9.55,0.01,14.33,0.01c0.87,0,1.01-0.13,1.01-1.02
		c0.01-1.12,0.01-2.23,0-3.35c0-0.78-0.25-1.01-1.02-1.01c-4.61,0-9.22,0-13.83,0c-0.22,0-0.44-0.01-0.64,0.04
		c-0.28,0.07-0.37-0.06-0.38-0.3c-0.01-0.37,0-0.73,0-1.1c0-0.87,0-0.87,0.87-0.87c4.14,0,8.29,0,12.43,0c0.92,0,1.83,0,2.75,0
		c0.38,0,0.62-0.12,0.65-0.56c0.1-1.36,0.13-2.72-0.01-4.08c-0.08-0.82-0.12-0.82-0.95-0.82c-7.19,0-14.38,0-21.57,0
		c-0.8,0-1.04,0.24-1.04,1.04c0,6.39,0,12.78,0,19.18c0,0.75,0.19,0.94,0.94,0.94c3.65,0,7.29,0,10.94,0c3.66,0,7.32,0,10.99,0
		c0.7,0,0.87-0.16,0.88-0.88c0.01-1.23,0.01-2.46,0-3.7C124.91,55.25,124.75,55.09,124.01,55.09z"/>
	<path class="st0" d="M290.19,59.61c-0.54-0.69-0.93-1.46-1.32-2.23c-0.21-0.41-0.33-0.87-0.63-1.22c-0.34-0.39-0.61-0.87-0.67-1.31
		c-0.14-1.07-0.84-1.83-1.32-2.7c-0.43-0.77-0.81-1.58-1.26-2.34c-0.55-0.94-0.98-1.95-1.57-2.88c-0.16-0.25-0.37-0.47-0.48-0.74
		c-0.25-0.61-0.59-1.17-0.91-1.75c-0.25-0.44-0.58-0.89-0.66-1.37c-0.14-0.79-0.49-1.44-0.96-2.06c-0.22-0.29-0.44-0.6-0.56-0.94
		c-0.17-0.48-0.48-0.66-0.94-0.66c-3.01-0.01-6.02-0.01-9.04,0c-0.4,0-0.79,0.15-0.93,0.55c-0.22,0.6-0.74,1.06-0.8,1.73
		c-0.01,0.14-0.12,0.27-0.19,0.41c-0.62,1.18-1.24,2.36-1.87,3.54c-0.19,0.35-0.35,0.71-0.58,1.04c-0.5,0.74-0.98,1.48-1.34,2.3
		c-0.35,0.78-0.83,1.49-1.23,2.25c-0.25,0.47-0.59,0.94-0.72,1.43c-0.27,1-0.93,1.77-1.33,2.7c-0.35,0.81-0.81,1.57-1.26,2.34
		c-0.34,0.59-0.59,1.22-1.01,1.76c-0.06,0.08-0.13,0.18-0.24,0.15c-0.11-0.03-0.13-0.14-0.11-0.25c0.2-1.16,0.05-2.32,0.08-3.48
		c0.03-0.97-0.13-1.11-1.13-1.11c-4.16,0-8.32,0-12.48,0c-0.13,0-0.27-0.01-0.4,0.01c-0.59,0.06-0.67,0-0.67-0.59
		c0-2.31,0-4.63,0-6.94c0,0,0,0,0.01,0c0-2.23,0-4.46,0-6.69c0-0.17,0.02-0.34-0.01-0.5c-0.06-0.32-0.2-0.57-0.58-0.57
		c-1.95,0-3.89-0.01-5.84,0c-0.36,0-0.59,0.19-0.69,0.58c-0.16,0.59,0.03,1.16,0.03,1.73c-0.01,5.95,0,11.9,0,17.86
		c0,0.84,0.08,0.9,0.93,0.9c6.37,0,12.75-0.01,19.12,0.01c0.73,0,1.45-0.05,2.18-0.03c2.2,0.05,4.39,0.01,6.59,0.02
		c0.29,0,0.48-0.12,0.61-0.35c0.53-0.89,1.15-1.73,1.55-2.7c0.11-0.28,0.29-0.36,0.58-0.36c4.14,0.01,8.29,0,12.43,0
		c0.17,0,0.32,0,0.44,0.17c0.38,0.54,0.57,1.17,0.92,1.73c0.17,0.28,0.45,0.48,0.53,0.83c0.13,0.51,0.46,0.7,0.99,0.7
		c2.08-0.02,4.16-0.01,6.24-0.01c0.25,0,0.53,0.05,0.66-0.23C290.5,60.06,290.36,59.83,290.19,59.61z M274.36,52.4
		c-1.31,0-2.63,0-3.94,0c-0.49,0-0.67-0.29-0.41-0.72c0.78-1.29,1.35-2.69,2.11-3.99c0.53-0.92,1.06-1.83,1.55-2.77
		c0.16-0.3,0.47-0.41,0.81-0.39c0.32,0.02,0.48,0.22,0.63,0.49c0.45,0.78,0.81,1.62,1.33,2.37c0.41,0.6,0.69,1.28,1.03,1.92
		c0.41,0.79,0.83,1.58,1.23,2.38c0.24,0.48,0.12,0.67-0.43,0.67c-1.3,0.01-2.59,0-3.89,0C274.36,52.39,274.36,52.4,274.36,52.4z"/>
	<path class="st0" d="M35.25,44.44c0-1.38,0-2.76,0-4.14c0-0.67-0.1-0.78-0.75-0.87c-0.15-0.02-0.3-0.01-0.45-0.01
		c-3.88,0-7.76,0-11.63,0c-3.89,0-7.79,0-11.68,0c-0.13,0-0.27-0.01-0.4,0.01c-0.54,0.07-0.75,0.31-0.75,0.85
		c0,1.38-0.01,2.76,0,4.14c0,0.71,0.18,0.87,0.89,0.87c2.55,0,5.09,0,7.64,0c0.71,0,0.74,0.03,0.67,0.71c-0.01,0.15,0,0.3,0,0.45
		c0,4.31,0,8.62,0,12.93c0,0.13-0.01,0.27,0.01,0.4c0.06,0.56,0.3,0.78,0.88,0.79c1.88,0,3.76,0,5.64,0c0.62,0,0.75-0.13,0.83-0.74
		c0.02-0.15,0.01-0.3,0.01-0.45c0-4.33,0-8.65,0-12.98c0-0.15,0.01-0.3-0.01-0.45c-0.06-0.61-0.01-0.66,0.58-0.66
		c2.56,0,5.13,0.01,7.69,0C35.11,45.3,35.25,45.15,35.25,44.44z"/>
	<path class="st0" d="M61.99,58.28c-0.49-1.01-1-2-1.53-2.99c-0.62-1.15-1.14-2.36-1.76-3.51c-0.44-0.82-0.84-1.67-1.26-2.51
		c-0.76-1.53-1.78-2.92-2.51-4.47c-0.2-0.42-0.31-0.87-0.53-1.26c-0.31-0.53-0.6-1.06-0.81-1.63c-0.26-0.7-0.61-1.35-1.02-1.96
		c-0.19-0.3-0.46-0.55-0.89-0.54c-3,0.01-5.99,0.01-8.99,0.01c-0.32,0-0.61,0.1-0.79,0.35c-0.29,0.41-0.53,0.86-0.81,1.28
		c-0.46,0.7-0.78,1.48-1.04,2.28c-0.22,0.68-0.64,1.26-0.97,1.89c-0.25,0.48-0.43,1.01-0.75,1.43c-0.72,0.93-1.15,2.02-1.75,3.02
		c-0.47,0.78-0.83,1.62-1.26,2.43c-0.39,0.74-0.97,1.38-1.16,2.22c-0.15,0.65-0.55,1.19-0.83,1.78c-0.18,0.38-0.36,0.78-0.58,1.14
		c-0.51,0.87-1.05,1.73-1.55,2.61c-0.25,0.45-0.09,0.71,0.42,0.71c2.2,0.01,4.39,0,6.59,0c0.22,0,0.42-0.05,0.52-0.24
		c0.37-0.68,0.92-1.25,1.21-1.98c0.45-1.15,0.49-1.17,1.72-1.18c3.91-0.03,7.82,0.08,11.72-0.06c0.2-0.01,0.35,0.07,0.45,0.25
		c0.29,0.51,0.64,1,0.85,1.55c0.17,0.43,0.57,0.69,0.68,1.15c0.09,0.37,0.33,0.53,0.73,0.52c1.08-0.02,2.16-0.01,3.25-0.01
		c0,0,0,0,0,0c1.08,0,2.16,0,3.25,0c0.24,0,0.5,0.01,0.59-0.26c0.09-0.27-0.02-0.53-0.22-0.72C62.54,59.21,62.23,58.78,61.99,58.28z
		 M42.93,51.8c0.63-0.99,1.11-2.06,1.63-3.11c0.5-1,1.2-1.89,1.66-2.92c0.1-0.23,0.21-0.45,0.33-0.67c0.16-0.3,0.42-0.41,0.75-0.4
		c0.29,0.01,0.35,0.23,0.47,0.43c0.46,0.74,0.74,1.58,1.29,2.27c0.24,0.3,0.4,0.69,0.55,1.05c0.36,0.87,0.95,1.63,1.24,2.53
		c0.08,0.25,0.34,0.4,0.45,0.65c0.18,0.43,0.13,0.54-0.34,0.54c-1.21,0.01-2.43,0-3.97,0c-1.03,0.06-2.39-0.1-3.75,0.06
		C42.96,52.28,42.75,52.07,42.93,51.8z"/>
	<path class="st0" d="M205.12,53.01c0.54-0.58,0.58-1.39,0.81-2.11c0.24-0.76,0.14-1.58,0.19-2.37c0.07-1.14-0.02-2.29-0.05-3.44
		c-0.03-0.96-0.39-1.81-0.67-2.69c-0.1-0.31-0.32-0.64-0.56-0.92c-0.7-0.82-1.69-1.12-2.64-1.42c-1.33-0.42-2.71-0.58-4.11-0.57
		c-5.46,0.03-10.91,0.01-16.37,0.01c-0.81,0-0.95,0.14-0.95,0.96c0,3.19,0,6.39,0,9.58c0,3.23,0,6.45,0,9.68
		c0,0.69,0.28,0.88,0.97,0.83c1.59-0.11,3.19-0.12,4.78,0.01c0.68,0.05,1.05-0.22,1.05-0.9c0-1.2,0.02-2.4-0.01-3.59
		c-0.01-0.48,0.16-0.59,0.61-0.59c3.11,0.02,6.22,0.03,9.33,0c1.52-0.01,3.03-0.01,4.53-0.45C203.3,54.66,204.26,53.93,205.12,53.01
		z M187.47,45.74c-0.01-0.46,0.23-0.63,0.64-0.63c2.83,0,5.65-0.01,8.48,0.03c0.49,0.01,0.99,0.05,1.49,0.09
		c0.65,0.04,1.13,0.47,1.21,1.18c0.08,0.74,0.11,1.49-0.03,2.23c-0.16,0.83-0.62,1.17-1.48,1.25c-1.76,0.17-3.52,0.03-5.18,0.1
		c-1.55,0-2.99,0-4.44,0c-0.58,0-0.68-0.08-0.68-0.65C187.47,48.13,187.48,46.94,187.47,45.74z"/>
	<path class="st0" d="M234.07,56.37c-0.56-1-1.03-2.07-1.62-3.07c-0.1-0.17-0.23-0.38-0.48-0.38c0-0.41-0.07-0.8-0.22-1.19
		c-0.25-0.67-0.74-1.21-0.95-1.89c-0.17-0.55-0.53-1.01-0.79-1.51c-0.26-0.5-0.38-1.08-0.88-1.42c-0.12-0.08-0.1-0.2-0.14-0.3
		c-0.21-0.51-0.38-1.06-0.75-1.48c-0.36-0.4-0.54-0.89-0.8-1.33c-0.46-0.79-0.86-1.61-1.29-2.42c-0.08-0.15-0.15-0.31-0.37-0.24
		c-0.03-0.06-0.06-0.13-0.09-0.19c0.05-0.81-0.52-1.43-1.29-1.43c-2.73,0-5.46,0.02-8.19-0.01c-0.72-0.01-1.15,0.2-1.58,0.82
		c-0.96,1.35-1.53,2.89-2.26,4.35c-0.38,0.76-0.68,1.57-1.15,2.27c-0.67,1-1.18,2.09-1.77,3.13c-0.54,0.96-1.03,1.95-1.58,2.91
		c-0.18,0.32-0.41,0.59-0.6,0.9c-0.44,0.75-0.45,1.65-0.99,2.37c-0.2,0.26-0.37,0.58-0.53,0.88c-0.43,0.83-0.69,1.75-1.42,2.4
		c-0.23,0.21-0.25,0.51-0.16,0.79c0.1,0.3,0.38,0.27,0.63,0.27c2.1,0,4.19-0.01,6.29,0.01c0.45,0,0.73-0.18,0.92-0.54
		c0.35-0.66,0.83-1.29,0.98-1.99c0.2-0.92,0.74-0.94,1.43-0.88c0.16,0.02,0.33,0,0.5,0c3.78,0,7.55,0,11.33-0.01
		c0.33,0,0.62,0.08,0.74,0.38c0.33,0.81,0.82,1.53,1.24,2.29c0.26,0.48,0.59,0.76,1.22,0.75c1.95-0.05,3.89-0.01,5.84-0.02
		c0.27,0,0.61,0.09,0.74-0.26c0.12-0.31,0.03-0.63-0.18-0.89C235.1,58.5,234.64,57.4,234.07,56.37z M231.8,52.85
		c0,0.01,0.01,0.01,0.01,0.02C231.81,52.86,231.81,52.85,231.8,52.85z M231.79,52.83c-0.01-0.03-0.02-0.06-0.03-0.09
		C231.77,52.77,231.78,52.8,231.79,52.83z M218.69,47c0.3-0.34,0.56-0.82,0.64-1.32c0.04-0.25,0.16-0.47,0.32-0.66
		c0.3-0.34,0.85-0.3,1.05,0.1c0.51,1,1.04,2,1.65,2.95c0.28,0.44,0.46,0.98,0.69,1.47c0.17,0.37,0.36,0.74,0.58,1.07
		c0.27,0.4,0.37,0.87,0.68,1.25c0.22,0.26-0.09,0.25-0.26,0.25c-1.28,0-2.56,0-3.84,0c-1.25,0-2.49-0.01-3.74,0
		c-0.37,0-0.52-0.02-0.3-0.46c0.4-0.77,0.77-1.56,1.2-2.3C217.81,48.57,218.08,47.7,218.69,47z"/>
	<path class="st0" d="M139.92,39.42c-0.13,0-0.26,0.03-0.4,0.04c-1.38,0.09-2.76,0.11-4.13,0c-1.17-0.09-1.46,0.07-1.46,1.23
		c0,6.24,0,12.48,0,18.72c0,0.1,0,0.2,0,0.3c0.05,0.72,0.2,0.86,0.92,0.86c1.75,0,3.49,0,5.24,0c0.9,0,1.01-0.1,1.01-0.99
		c0-3.18,0-6.36,0-9.53c0-3.16,0-6.32,0-9.48C141.11,39.6,140.9,39.4,139.92,39.42z"/>
</g>
</svg>
