<?xml version="1.0" encoding="utf-8"?>
<!-- Generator: Adobe Illustrator 23.0.6, SVG Export Plug-In . SVG Version: 6.00 Build 0)  -->
<svg version="1.1" id="Layer_1" xmlns="http://www.w3.org/2000/svg" xmlns:xlink="http://www.w3.org/1999/xlink" x="0px" y="0px"
	 viewBox="0 0 119 33" style="enable-background:new 0 0 119 33;" xml:space="preserve">
<style type="text/css">
	.st0{fill:url(#SVGID_1_);}
</style>
<linearGradient id="SVGID_1_" gradientUnits="userSpaceOnUse" x1="15.3147" y1="16.5" x2="103.6853" y2="16.5">
	<stop  offset="0" style="stop-color:#E9A222"/>
	<stop  offset="0.3849" style="stop-color:#D24252"/>
	<stop  offset="1" style="stop-color:#9E005D"/>
</linearGradient>
<path class="st0" d="M22.21,27.84c-0.79,0-1.13-0.35-1.13-1.13V11.24h-4.63c-0.79,0-1.13-0.35-1.13-1.13V6.3
	c0-0.79,0.35-1.13,1.13-1.13h16.63c0.79,0,1.13,0.35,1.13,1.13v3.81c0,0.79-0.35,1.13-1.13,1.13h-4.63V26.7
	c0,0.79-0.35,1.13-1.13,1.13H22.21z M46.56,28.31c-7.87,0-9.79-2.58-9.79-6.42V11.15c0-3.84,1.92-6.46,9.79-6.46
	c7.87,0,9.76,2.61,9.76,6.46v10.74C56.32,25.73,54.43,28.31,46.56,28.31z M46.56,22.23c2.3,0,2.65-0.63,2.65-1.48v-8.47
	c0-0.82-0.35-1.45-2.65-1.45c-2.27,0-2.65,0.63-2.65,1.45v8.47C43.91,21.6,44.29,22.23,46.56,22.23z M69.89,28.31
	c-7.81,0-9.73-2.58-9.73-6.42V6.3c0-0.79,0.35-1.13,1.13-1.13h4.94c0.79,0,1.13,0.35,1.13,1.13v14.36c0,0.85,0.38,1.48,2.58,1.48
	c2.24,0,2.61-0.63,2.61-1.48V6.3c0-0.79,0.31-1.13,1.13-1.13h4.79c0.79,0,1.13,0.35,1.13,1.13v15.59
	C79.62,25.73,77.7,28.31,69.89,28.31z M84.95,27.84c-0.79,0-1.13-0.35-1.13-1.13V6.3c0-0.79,0.35-1.13,1.13-1.13h10.49
	c4.72,0,6.2,2.14,6.2,5.26v1.45c0,1.76-0.44,3.02-1.76,3.59c2.3,0.25,3.81,1.92,3.81,4.57v6.68c0,0.79-0.35,1.13-1.13,1.13h-4.88
	c-0.79,0-1.13-0.35-1.13-1.13v-4.82c0-0.94-0.31-1.35-1.2-1.35h-4.41v6.17c0,0.79-0.35,1.13-1.13,1.13H84.95z M90.93,14.86h2.36
	c1.1,0,1.39-0.63,1.39-1.48v-1.07c0-0.85-0.28-1.48-1.39-1.48h-2.36V14.86z"/>
</svg>
