<?xml version="1.0" encoding="utf-8"?>
<!-- Generator: Adobe Illustrator 23.0.6, SVG Export Plug-In . SVG Version: 6.00 Build 0)  -->
<svg version="1.1" id="Layer_1" xmlns="http://www.w3.org/2000/svg" xmlns:xlink="http://www.w3.org/1999/xlink" x="0px" y="0px"
	 viewBox="0 0 50 50" style="enable-background:new 0 0 50 50;" xml:space="preserve">
<style type="text/css">
	.st0{fill:#FFFFFF;}
</style>
<path class="st0" d="M24.91,48.96C12.79,48.99,1.04,39.71,1,25.11C0.96,10.44,12.62,1.02,25.07,1.04c13,0.02,23.75,10.72,23.93,23.4
	C49.19,38.19,38.02,49.14,24.91,48.96z M37.01,18.21c0.75-1,1.46-1.94,2.17-2.88c-0.76,0.03-1.29,0.25-1.82,0.49
	c-1.1,0.48-2.01,0.58-3.15-0.26c-1.9-1.42-4.11-1.38-6.18-0.21c-2.03,1.15-3.05,2.94-3,5.3c0.01,0.34,0,0.69,0,1.09
	c-4.95-0.31-8.91-2.46-12.21-6.1c-1.41,3.08-0.77,5.56,1.79,7.92c-1.07-0.28-1.8-0.48-2.62-0.7c0.22,2.88,1.7,4.68,4.21,5.82
	c-0.65,0-1.3,0-1.95,0c-0.08,0.09-0.16,0.19-0.25,0.28c0.71,0.86,1.29,1.87,2.15,2.53c0.89,0.68,2.05,1.02,3.14,1.53
	c-2.38,1.71-5.11,2.39-8.15,2.22c0.11,0.16,0.16,0.28,0.25,0.33C22.53,41.7,36.21,35.15,37,21.47c0.04-0.77,0.19-1.3,0.83-1.81
	c0.74-0.59,1.33-1.35,1.99-2.04c-0.05-0.05-0.1-0.1-0.15-0.15C38.8,17.72,37.93,17.95,37.01,18.21z"/>
</svg>
