<?xml version="1.0" encoding="utf-8"?>
<!-- Generator: Adobe Illustrator 23.0.6, SVG Export Plug-In . SVG Version: 6.00 Build 0)  -->
<svg version="1.1" id="Layer_1" xmlns="http://www.w3.org/2000/svg" xmlns:xlink="http://www.w3.org/1999/xlink" x="0px" y="0px"
	 viewBox="0 0 1000 105" style="enable-background:new 0 0 1000 105;" xml:space="preserve">
<style type="text/css">
	.st0{fill:url(#SVGID_1_);}
	.st1{fill:url(#SVGID_2_);}
</style>
<g>
	<linearGradient id="SVGID_1_" gradientUnits="userSpaceOnUse" x1="-61" y1="76" x2="1071" y2="76">
		<stop  offset="0" style="stop-color:#E9A222"/>
		<stop  offset="0.3849" style="stop-color:#D24252"/>
		<stop  offset="1" style="stop-color:#9E005D"/>
	</linearGradient>
	<path class="st0" d="M1056.51,143.93C1006.73,148.64,1005,112,955,112c-50,0-50,32-100,32c-50,0-50-32-100-32c-50,0-50,32-100,32
		c-50,0-50-32-100-32c-50,0-50,32-100,32c-50,0-50-32-100-32c-50,0-50,32-100,32c-50,0-50-32-100-32c-50,0-50,32-100.01,32
		s-48.72-27.22-98.5-31.93c-4.71-0.44-17.51,11.2-17.51,6.48c0-4.73,32-4.73,32-9.45c0-4.73-32-4.73-32-9.45c0-4.73,32-4.73,32-9.45
		c0-4.73-32-4.73-32-9.45c0-4.73,32-4.73,32-9.45c0-4.73-32-4.73-32-9.45c0-4.73,32-4.73,32-9.46c0-4.73-32-4.73-32-9.45
		c0-4.73,32-4.73,32-9.46S-51.22,8.52-46.51,8.07C3.27,3.36,5,40,55,40c50,0,50-32,100-32c50,0,50,32,100,32c50,0,50-32,100-32
		c50,0,50,32,100,32c50,0,50-32,100-32c50,0,50,32,100,32c50,0,50-32,100-32c50,0,50,32,100,32c50,0,50-32,100.01-32
		c50,0,48.72,27.22,98.5,31.93c4.71,0.44,17.51-11.2,17.51-6.48c0,4.73-32,4.73-32,9.45c0,4.73,32,4.73,32,9.45
		c0,4.73-32,4.73-32,9.45c0,4.73,32,4.73,32,9.45c0,4.73-32,4.73-32,9.45c0,4.73,32,4.73,32,9.45c0,4.73-32,4.73-32,9.46
		c0,4.73,32,4.73,32,9.45c0,4.73-32.59,7.65-31.75,12.31C1041.6,134.37,1061.22,143.48,1056.51,143.93z"/>
</g>
</svg>
