<?xml version="1.0" encoding="utf-8"?>
<!-- Generator: Adobe Illustrator 23.0.6, SVG Export Plug-In . SVG Version: 6.00 Build 0)  -->
<svg version="1.1" id="Layer_1" xmlns="http://www.w3.org/2000/svg" xmlns:xlink="http://www.w3.org/1999/xlink" x="0px" y="0px"
	 viewBox="0 0 50 50" style="enable-background:new 0 0 50 50;" xml:space="preserve">
<style type="text/css">
	.st0{fill:#FFFFFF;}
</style>
<g>
	<path class="st0" d="M25.04,48.99C11.75,49.01,0.98,38.3,1,25.03C1.01,12.56,10.51,0.98,25.01,1.01
		C39.15,1.04,48.99,11.93,49,25.06C49.01,38.85,37.94,48.97,25.04,48.99z M24.09,15.49c-0.28,0-0.55,0-0.83,0
		c-2.53,0.02-5.08,0.07-7.62,0.07c-2,0.06-3.69,1.51-4.06,3.47c-0.74,4.02-0.67,8.06,0,12.09c0.37,2.2,1.48,3.12,3.73,3.3
		c6.47,0.5,12.93,0.48,19.4-0.02c2.3-0.18,3.35-1.11,3.73-3.42c0.65-3.99,0.65-7.99,0-11.98c-0.25-1.53-1.05-2.89-2.64-3.28
		c-0.64-0.15-1.3-0.16-1.96-0.16C30.58,15.56,27.33,15.48,24.09,15.49z"/>
	<path class="st0" d="M21.62,29.14c0-3.04,0-5.85,0-8.84c2.86,1.49,5.61,2.92,8.5,4.43C27.24,26.23,24.5,27.65,21.62,29.14z"/>
</g>
</svg>
